<svg width="322" height="55" viewBox="0 0 322 55" fill="none" xmlns="http://www.w3.org/2000/svg">
<g filter="url(#filter0_b_144_462)">
<path d="M5.63051 28.5594L5.63051 48.949L17.9689 48.949C23.3132 49.042 27.2865 48.4262 29.889 47.1018C32.4217 45.7308 33.6881 42.896 33.6881 38.5974C33.6416 34.4613 32.2591 31.7079 29.5404 30.3369C26.8218 29.0822 23.1621 28.4897 18.5614 28.5594L5.63051 28.5594ZM5.63051 5.83449L5.63051 24.4117L17.8992 24.4117C22.8949 24.4117 26.4152 23.5288 28.46 21.7628C30.4118 20.0898 31.3645 17.7081 31.318 14.6177C31.3645 11.4344 30.2956 9.15725 28.1114 7.78632C25.8808 6.4851 22.1281 5.83449 16.8535 5.83449L5.63051 5.83449ZM21.768 53.0967L0.785785 53.0967L0.785785 1.7217L19.3282 1.7217C25.3231 1.76817 29.6566 2.92998 32.3288 5.20711C34.9544 7.53072 36.244 10.6676 36.1976 14.6177C36.1511 18.1496 35.3146 20.7985 33.6881 22.5645C32.0151 24.3072 30.1097 25.3528 27.972 25.7013V25.8408C35.0125 27.2117 38.5328 31.4639 38.5328 38.5974C38.4863 43.8952 36.9411 47.6362 33.8972 49.8204C30.8068 52.0046 26.7637 53.0967 21.768 53.0967ZM83.2855 53.0967L48.3965 53.0967L48.3965 1.7217L82.5884 1.7217V5.83449L53.2412 5.83449L53.2412 24.4117L79.7304 24.4117V28.5594L53.2412 28.5594V48.949L83.2855 48.949V53.0967ZM126.435 53.0967L96.8786 8.27427H96.7392L96.7392 53.0967H91.8945L91.8945 1.7217H97.3666L127.062 46.6138H127.202V1.7217H132.081V53.0967H126.435ZM178.507 53.0967L143.618 53.0967V1.7217L177.81 1.7217V5.83449L148.463 5.83449V24.4117L174.952 24.4117V28.5594L148.463 28.5594V48.949L178.507 48.949V53.0967ZM191.612 53.0967H186.767V1.7217L219.879 1.7217V5.83449L191.612 5.83449V24.4117L217.3 24.4117V28.5594L191.612 28.5594V53.0967ZM233.542 53.0967H228.697V1.7217L233.542 1.7217V53.0967ZM242.22 5.83449V1.7217L279.619 1.7217V5.83449L263.342 5.83449V53.0967H258.497V5.83449L242.22 5.83449ZM283.871 37.7609H288.576C289.064 42.2687 290.656 45.4985 293.351 47.4503C296.023 49.4021 299.358 50.3548 303.354 50.3083C307.978 50.2619 311.336 49.1698 313.427 47.0321C315.426 44.9873 316.425 42.5359 316.425 39.6778C316.425 37.6795 315.995 36.0414 315.135 34.7634C314.275 33.5087 313.09 32.5095 311.58 31.766C310.093 30.9527 308.443 30.3021 306.631 29.8141C304.772 29.3494 302.82 28.8963 300.775 28.4548C298.823 27.9901 296.93 27.444 295.094 26.8167C293.235 26.2125 291.539 25.3877 290.005 24.342C288.588 23.2964 287.426 21.9371 286.52 20.2641C285.567 18.6376 285.091 16.5928 285.091 14.1298C285.091 10.412 286.566 7.1938 289.517 4.47517C292.468 1.82626 296.802 0.455333 302.518 0.362388C308.304 0.40886 312.649 1.90759 315.553 4.85857C318.411 7.76308 319.817 11.3763 319.771 15.6982L315.135 15.6982C315.089 11.7945 313.822 8.91327 311.336 7.05438C308.873 5.33491 305.934 4.47517 302.518 4.47517C297.615 4.59136 294.188 5.81125 292.236 8.13486C290.284 10.4585 289.517 13.0261 289.936 15.8376C290.214 17.4641 290.912 18.777 292.027 19.7761C293.072 20.8218 294.35 21.6466 295.861 22.2508C297.394 22.8782 299.079 23.401 300.915 23.8192C302.727 24.2607 304.586 24.6906 306.491 25.1088C308.443 25.5038 310.302 26.0034 312.068 26.6075C313.834 27.2349 315.402 28.0947 316.773 29.1867C318.167 30.2324 319.26 31.5684 320.05 33.195C320.863 34.8912 321.269 36.9825 321.269 39.4687C321.084 49.3208 314.833 54.3166 302.518 54.456C297.034 54.456 292.608 53.0502 289.239 50.2386C285.707 47.4735 283.917 43.3143 283.871 37.7609Z" fill="#EFEFED"/>
</g>
<defs>
<filter id="filter0_b_144_462" x="-36.392" y="-36.8153" width="394.839" height="128.449" filterUnits="userSpaceOnUse" color-interpolation-filters="sRGB">
<feFlood flood-opacity="0" result="BackgroundImageFix"/>
<feGaussianBlur in="BackgroundImageFix" stdDeviation="18.5889"/>
<feComposite in2="SourceAlpha" operator="in" result="effect1_backgroundBlur_144_462"/>
<feBlend mode="normal" in="SourceGraphic" in2="effect1_backgroundBlur_144_462" result="shape"/>
</filter>
</defs>
</svg>
