<svg width="41" height="41" viewBox="0 0 41 41" fill="none" xmlns="http://www.w3.org/2000/svg">
<path d="M40.8027 20.5166C40.8027 24.4644 39.6074 28.3035 37.3462 31.6192C37.039 32.07 36.5341 32.3135 36.0199 32.3135C35.7155 32.3135 35.4076 32.2283 35.1355 32.0498C34.4037 31.5704 34.2073 30.5999 34.6963 29.8825C36.606 27.0825 37.6152 23.8439 37.6152 20.5166C37.6152 19.0869 37.4328 17.6669 37.0729 16.2966C36.8535 15.4611 37.3668 14.609 38.2191 14.3939C39.072 14.179 39.9405 14.682 40.1599 15.5175C40.5864 17.1423 40.8027 18.8241 40.8027 20.5166ZM29.3065 34.9615C26.6295 36.5512 23.5507 37.3916 20.4027 37.3916C10.9118 37.3916 3.19019 29.8214 3.19019 20.5166C3.19019 11.2118 10.9118 3.6416 20.4027 3.6416C23.9167 3.6416 27.2957 4.67249 30.1747 6.62287C30.8987 7.11328 31.8914 6.93537 32.3919 6.22553C32.8922 5.51569 32.711 4.54248 31.9866 4.05176C28.5725 1.73914 24.567 0.516602 20.4027 0.516602C14.9537 0.516602 9.83071 2.59699 5.97769 6.37445C2.12468 10.1519 0.00268555 15.1745 0.00268555 20.5166C0.00268555 25.8587 2.12468 30.8813 5.97769 34.6588C9.83071 38.4362 14.9537 40.5166 20.4027 40.5166C24.1331 40.5166 27.7831 39.5199 30.9582 37.6342C31.7112 37.1871 31.9518 36.2265 31.4958 35.4882C31.0394 34.75 30.0595 34.5144 29.3065 34.9615ZM20.5565 25.0473C20.304 25.057 20.0684 24.9691 19.8853 24.7982L11.5384 17.0391C10.8996 16.4453 9.89079 16.4715 9.28535 17.0977C8.6796 17.7239 8.70637 18.713 9.34511 19.3066L17.6905 27.0645C18.4612 27.7828 19.4583 28.1729 20.5148 28.1729C20.5714 28.1729 20.6281 28.1716 20.6847 28.1695C21.8038 28.1253 22.8316 27.6504 23.5787 26.8322C23.5977 26.8118 23.6157 26.7907 23.6335 26.7691L40.451 6.26123C41.0025 5.58862 40.8936 4.60504 40.2075 4.06458C39.5218 3.5238 38.5182 3.63062 37.9666 4.30322L21.1821 24.7711C21.0172 24.9398 20.7961 25.0378 20.5565 25.0473Z" fill="#0BB9EE"/>
</svg>
