<svg width="156" height="41" viewBox="0 0 156 41" fill="none" xmlns="http://www.w3.org/2000/svg">
<g clip-path="url(#clip0_102_767)">
<path d="M24.2568 0.991561C22.1662 0.631144 19.8976 1.27698 18.2677 3.15406L14.4838 7.51031C13.5399 8.59781 12.2725 9.34156 10.876 9.62906L5.27595 10.7853C2.84755 11.2853 1.15627 12.9832 0.425293 15.0249L7.44227 16.8291C12.9113 18.2353 15.6468 18.9374 17.8049 17.6707C19.9631 16.402 20.733 13.6416 22.2707 8.11864L24.2568 0.991561Z" fill="#0BB9EE"/>
<path d="M39.2164 25.6039C39.5891 23.4623 38.9584 21.131 37.0992 19.4602L32.8178 15.6102C31.749 14.6498 31.018 13.3602 30.7354 11.9394L29.6011 6.24144C29.0953 3.69977 27.3467 1.95186 25.2623 1.24561L23.4748 8.44561C22.0927 14.0102 21.4027 16.7935 22.6476 18.9894C23.8945 21.1852 26.6076 21.9685 32.0356 23.5331L39.2164 25.6039Z" fill="#DC80FE"/>
<path d="M14.8586 40.7414C17.0106 41.1893 19.3837 40.5664 21.073 38.6226L24.8548 34.2664C25.7987 33.1789 27.0662 32.4351 28.4626 32.1476L34.0627 30.9935C36.5423 30.481 38.254 28.7226 38.9584 26.6226L31.7121 24.7601C26.2431 23.3539 23.5075 22.6518 21.3494 23.9185C19.1913 25.1872 18.4214 27.9476 16.8837 33.4706L14.8586 40.7414Z" fill="#740CFF"/>
<path d="M0.14883 16.0415C-0.272967 18.2165 0.345395 20.6103 2.24143 22.3144L6.52287 26.1623C7.5917 27.1228 8.32267 28.4123 8.60524 29.8332L9.74163 35.5311C10.231 37.9853 11.8793 39.6998 13.8675 40.4519L15.6836 33.1415C17.0657 27.5769 17.7558 24.7936 16.5088 22.5978C15.2618 20.4019 12.5488 19.6186 7.12076 18.054L0.14883 16.0415Z" fill="#3B3CFE"/>
<path d="M147.931 28.6624C144.704 28.6624 143.251 27.1249 142.755 25.1124C142.726 24.9645 142.698 24.8166 142.698 24.6687C142.698 23.7228 143.482 23.0707 144.24 23.0707C144.792 23.0707 145.315 23.3957 145.519 24.1957C145.839 25.3791 146.594 26.177 148.107 26.177C149.561 26.177 150.433 25.2895 150.433 24.2541C150.433 21.8874 144.764 21.2957 144.764 17.3916C144.764 14.9353 146.799 12.8062 150.114 12.8062C152.673 12.8062 154.301 14.0478 154.883 15.9124C154.94 16.0895 154.971 16.2666 154.971 16.4457C154.971 17.3041 154.301 17.9249 153.574 17.9249C153.11 17.9249 152.585 17.6291 152.295 16.8895C151.887 15.8832 151.132 15.2041 149.94 15.2041C148.72 15.2041 147.847 16.0332 147.847 17.0687C147.847 19.5541 153.574 19.9374 153.574 23.902C153.572 26.4145 151.566 28.6624 147.931 28.6624Z" fill="#030344"/>
<path d="M135.58 28.6624C132.354 28.6624 130.9 27.1249 130.404 25.1124C130.376 24.9645 130.347 24.8166 130.347 24.6687C130.347 23.7228 131.131 23.0707 131.889 23.0707C132.442 23.0707 132.964 23.3957 133.168 24.1957C133.488 25.3791 134.243 26.177 135.757 26.177C137.21 26.177 138.083 25.2895 138.083 24.2541C138.083 21.8874 132.413 21.2957 132.413 17.3916C132.413 14.9353 134.448 12.8062 137.763 12.8062C140.323 12.8062 141.95 14.0478 142.532 15.9124C142.589 16.0895 142.62 16.2666 142.62 16.4457C142.62 17.3041 141.95 17.9249 141.224 17.9249C140.759 17.9249 140.235 17.6291 139.944 16.8895C139.536 15.8832 138.781 15.2041 137.589 15.2041C136.369 15.2041 135.497 16.0332 135.497 17.0687C135.497 19.5541 141.224 19.9374 141.224 23.902C141.221 26.4145 139.215 28.6624 135.58 28.6624Z" fill="#030344"/>
<path d="M129.217 12.8935C129.972 12.8935 130.642 13.3956 130.642 14.3435C130.642 14.5206 130.613 14.7289 130.554 14.9644L127.298 27.4185C127.095 28.1873 126.483 28.5435 125.844 28.5435C125.06 28.5435 124.303 28.0102 124.303 27.0935C124.303 26.9456 124.303 26.7977 124.36 26.6206L124.622 25.6144C123.43 27.5664 121.714 28.6623 119.708 28.6623C116.655 28.6623 115.259 26.0581 115.259 22.8935C115.259 22.1248 115.347 21.3248 115.492 20.5269C116.364 16.1185 119.184 12.7769 122.935 12.7769C125.173 12.7769 126.657 14.3144 127.005 16.5644L127.644 14.1394C127.878 13.2789 128.576 12.8935 129.217 12.8935ZM121.221 25.8519C123.402 25.8519 125.292 23.6331 125.844 20.7935C125.961 20.231 126.018 19.6998 126.018 19.1956C126.018 17.0352 125.001 15.6164 123.256 15.6164C121.076 15.6164 119.214 17.7456 118.633 20.6164C118.516 21.2081 118.459 21.7706 118.459 22.2727C118.459 24.3727 119.417 25.8519 121.221 25.8519Z" fill="#030344"/>
<path d="M109.675 12.8062C112.728 12.8062 114.124 15.4103 114.124 18.5749C114.124 19.3437 114.036 20.1437 113.891 20.9416C113.047 25.2603 110.256 28.6916 106.448 28.6916C104.239 28.6916 102.756 27.1832 102.377 24.9937L99.9346 34.2832C99.7319 35.052 99.1197 35.4082 98.4808 35.4082C97.7253 35.4082 96.9697 34.8749 96.9697 33.9582C96.9697 33.8103 96.9697 33.6624 97.0271 33.4853L102.087 14.1374C102.32 13.2791 103.016 12.8645 103.657 12.8645C104.413 12.8645 105.082 13.3666 105.082 14.3437C105.082 14.5207 105.053 14.7291 104.994 14.9645L104.761 15.852C105.952 13.8999 107.668 12.8062 109.675 12.8062ZM110.75 20.852C110.866 20.2603 110.924 19.727 110.924 19.2249C110.924 17.0957 109.935 15.6457 108.162 15.6457C105.981 15.6457 104.091 17.8353 103.538 20.6749C103.422 21.2374 103.364 21.7687 103.364 22.2728C103.364 24.4332 104.353 25.8812 106.098 25.8812C108.278 25.8812 110.168 23.752 110.75 20.852Z" fill="#030344"/>
<path d="M94.8872 12.7749C96.9798 12.7749 98.5503 14.077 98.5503 16.5916C98.5503 17.1832 98.4623 17.8332 98.2882 18.5437L95.9909 27.3291C95.7575 28.1874 95.0613 28.5416 94.4204 28.5416C93.6649 28.5416 92.9666 28.0687 92.9666 27.2395C92.9666 27.0916 92.9953 26.9437 93.024 26.7957L95.1473 18.6895C95.264 18.2166 95.3213 17.802 95.3213 17.4478C95.3213 16.0874 94.5371 15.4666 93.5195 15.4666C92.0944 15.4666 91.1361 16.5312 90.6119 18.5145L88.2859 27.3312C88.0832 28.1291 87.4137 28.5437 86.7154 28.5437C85.9886 28.5437 85.2903 28.0707 85.2903 27.2416C85.2903 27.0937 85.319 26.9457 85.3477 26.7978L87.471 18.6916C87.5877 18.2187 87.645 17.8041 87.645 17.4499C87.645 16.0895 86.8608 15.4687 85.8125 15.4687C84.416 15.4687 83.4865 16.5937 82.993 18.3687V18.3395L80.6383 27.3624C80.4356 28.1603 79.766 28.5166 79.1559 28.5166C78.4003 28.5166 77.6448 28.0145 77.6448 27.0957C77.6448 26.9478 77.6448 26.7999 77.7021 26.6228L80.9884 14.1395C81.2219 13.252 81.918 12.8374 82.6162 12.8374C83.3718 12.8374 84.0413 13.3395 84.0413 14.1395C84.0413 14.2874 84.0127 14.4353 83.984 14.5832L83.9553 14.6728C84.7703 13.4603 85.9619 12.7791 87.4444 12.7791C89.0149 12.7791 90.3519 13.6082 90.6427 15.3832C91.5743 13.7228 93.0567 12.7749 94.8872 12.7749Z" fill="#030344"/>
<path d="M69.08 28.6916C65.5029 28.6916 63.5557 26.1187 63.5557 22.4791C63.5557 21.8291 63.613 21.177 63.7297 20.4666C64.5446 15.7916 67.6549 12.7749 71.492 12.7749C75.2144 12.7749 77.045 15.4374 77.045 18.9582C77.045 19.6082 76.9876 20.2603 76.8709 20.9395C76.0294 25.7332 72.9191 28.6916 69.08 28.6916ZM69.3421 25.8228C71.494 25.8228 73.3246 23.752 73.8774 20.7937C73.9941 20.2312 74.0514 19.6999 74.0514 19.1957C74.0514 17.0353 73.0338 15.6166 71.232 15.6166C69.08 15.6166 67.2781 17.7166 66.7253 20.5874C66.6086 21.2082 66.5512 21.7707 66.5512 22.2728C66.5512 24.5791 67.6856 25.8228 69.3421 25.8228Z" fill="#030344"/>
<path d="M59.2312 28.2475C58.5617 28.4537 57.8655 28.5433 57.1959 28.5433C54.055 28.5433 51.1475 26.3829 51.1475 22.3017C51.1475 21.4725 51.2642 20.585 51.5263 19.61C52.7466 14.9058 56.295 12.9829 59.4053 12.9829C60.4802 12.9829 61.4979 13.2204 62.3701 13.6642C63.097 14.0183 63.3878 14.6704 63.3878 15.2329C63.3878 15.9142 62.9803 16.5058 62.3414 16.5058C62.1387 16.5058 61.9053 16.4475 61.6719 16.2996C61.0617 15.9454 60.3635 15.7662 59.6366 15.7662C57.6014 15.7662 55.3327 17.1558 54.5484 20.1746C54.3744 20.7954 54.315 21.3579 54.315 21.86C54.315 24.4329 56.1169 25.8246 58.0375 25.8246C58.3856 25.8246 58.7357 25.7662 59.0838 25.6767C59.2292 25.6475 59.3745 25.6183 59.4913 25.6183C60.1301 25.6183 60.4516 26.0912 60.4516 26.6246C60.4516 27.2704 60.0441 27.9808 59.2312 28.2475Z" fill="#030344"/>
</g>
<defs>
<clipPath id="clip0_102_767">
<rect width="155" height="40" fill="white" transform="translate(0.0219727 0.895508)"/>
</clipPath>
</defs>
</svg>
