<svg width="76" height="76" viewBox="0 0 76 76" fill="none" xmlns="http://www.w3.org/2000/svg">
<path d="M66.1062 35.6404C66.1088 34.9518 65.9454 34.2728 65.6299 33.6607C65.3144 33.0486 64.8561 32.5216 64.2938 32.1242C64.8737 31.7113 65.3424 31.1614 65.6582 30.5234C65.974 29.8854 66.1271 29.1793 66.1039 28.4678C66.0806 27.7563 65.8818 27.0616 65.525 26.4457C65.1682 25.8297 64.6646 25.3115 64.0591 24.9373C63.6086 24.6587 63.1109 24.465 62.5906 24.3659V5.94312C62.5895 5.01104 62.2188 4.11744 61.5597 3.45836C60.9006 2.79928 60.007 2.42854 59.0749 2.42749H21.5749C20.6429 2.42854 19.7493 2.79928 19.0902 3.45836C18.4311 4.11744 18.0604 5.01104 18.0593 5.94312V7.38074C15.7298 7.91122 13.6494 9.21711 12.1591 11.0845C10.6688 12.9519 9.85679 15.27 9.85619 17.6592C9.85559 20.0484 10.6664 22.367 12.1558 24.2351C13.6452 26.1032 15.7249 27.4101 18.0542 27.9418L12.2867 34.533C11.4969 35.433 11.0033 36.5542 10.8728 37.7444L9.97892 45.7893C9.96066 45.9529 9.90817 46.1108 9.82485 46.2528C9.74154 46.3948 9.62926 46.5177 9.49534 46.6134L2.1438 51.8645L3.50607 53.7717L10.8576 48.5206C11.2594 48.2333 11.5962 47.8647 11.8461 47.4387C12.0961 47.0127 12.2536 46.5389 12.3084 46.0481L13.2022 38.0032C13.2805 37.2891 13.5767 36.6164 14.0505 36.0764L20.2257 29.0191L21.2369 30.7044C21.6041 31.3203 21.775 32.0334 21.7268 32.7489C21.6787 33.4643 21.4138 34.1481 20.9675 34.7093L18.3161 38.0235C18.1499 38.2313 18.0593 38.4895 18.0593 38.7556V64.075L17.3388 63.8311C16.7881 63.6438 16.1995 63.5965 15.626 63.6934C15.0525 63.7904 14.5121 64.0284 14.0535 64.3862L4.50221 71.815L5.94116 73.665L15.4925 66.2362C15.6454 66.1169 15.8255 66.0375 16.0166 66.0052C16.2078 65.9729 16.404 65.9887 16.5875 66.0512L18.0593 66.5494V69.2244C18.0604 70.1564 18.4311 71.05 19.0902 71.7091C19.7493 72.3682 20.6429 72.7389 21.5749 72.74H59.0749C60.007 72.7389 60.9006 72.3682 61.5597 71.7091C62.2188 71.05 62.5895 70.1564 62.5906 69.2244V54.1283L63.7202 53.5636C64.3864 53.2304 64.955 52.7306 65.3708 52.1127C65.7866 51.4948 66.0355 50.7799 66.0932 50.0373C66.1509 49.2948 66.0156 48.5499 65.7003 47.8752C65.3849 47.2005 64.9004 46.6188 64.2938 46.1867C64.8542 45.7876 65.3112 45.2603 65.6264 44.6487C65.9417 44.0372 66.1062 43.3591 66.1062 42.6711C66.1062 41.983 65.9417 41.305 65.6264 40.6934C65.3112 40.0819 64.8542 39.5546 64.2938 39.1554C64.8558 38.758 65.314 38.2311 65.6294 37.6193C65.9449 37.0075 66.1084 36.3287 66.1062 35.6404ZM62.8269 40.9937C63.1154 41.1677 63.3535 41.414 63.5176 41.7083C63.6817 42.0026 63.7661 42.3347 63.7624 42.6716C63.7637 43.0382 63.6622 43.3979 63.4695 43.7097C63.2767 44.0216 63.0005 44.2732 62.672 44.436L59.5859 45.979C59.2852 46.1293 58.951 46.2003 58.6151 46.1852C58.2792 46.1701 57.9527 46.0693 57.6667 45.8926C57.3807 45.7158 57.1446 45.4688 56.9809 45.1752C56.8171 44.8815 56.7312 44.5508 56.7312 44.2146C56.7299 43.848 56.8314 43.4884 57.0242 43.1765C57.2169 42.8646 57.4932 42.613 57.8217 42.4502L60.9078 40.9072C61.2075 40.7533 61.5422 40.6803 61.8788 40.6955C62.2154 40.7106 62.5422 40.8134 62.8269 40.9937ZM55.5593 47.1741C55.7541 47.3802 55.9686 47.5666 56.1998 47.7308C55.9686 47.894 55.7541 48.0797 55.5593 48.285V47.1741ZM62.672 37.4048L59.5859 38.9477C59.2852 39.0981 58.951 39.1691 58.6151 39.1539C58.2792 39.1388 57.9527 39.0381 57.6667 38.8613C57.3807 38.6845 57.1446 38.4376 56.9809 38.1439C56.8171 37.8502 56.7312 37.5196 56.7312 37.1833C56.7299 36.8167 56.8314 36.4571 57.0242 36.1453C57.2169 35.8334 57.4932 35.5818 57.8217 35.4189L60.9078 33.8759C61.2085 33.7256 61.5427 33.6546 61.8786 33.6698C62.2145 33.6849 62.5409 33.7857 62.8269 33.9624C63.1129 34.1392 63.349 34.3862 63.5127 34.6798C63.6765 34.9735 63.7624 35.3042 63.7624 35.6404C63.7637 36.007 63.6622 36.3666 63.4695 36.6785C63.2767 36.9903 63.0005 37.2419 62.672 37.4048ZM63.7624 28.6091C63.7637 28.9757 63.6622 29.3354 63.4695 29.6472C63.2767 29.9591 63.0005 30.2107 62.672 30.3735L59.5859 31.9165C59.2851 32.0669 58.951 32.1378 58.6151 32.1227C58.2792 32.1076 57.9527 32.0068 57.6667 31.8301C57.3807 31.6533 57.1446 31.4063 56.9809 31.1127C56.8171 30.819 56.7312 30.4883 56.7312 30.1521C56.7299 29.7855 56.8314 29.4259 57.0242 29.114C57.2169 28.8021 57.4932 28.5505 57.8217 28.3877L60.9076 26.8447C61.2084 26.6944 61.5426 26.6234 61.8785 26.6385C62.2144 26.6536 62.5408 26.7544 62.8269 26.9311C63.1129 27.1079 63.349 27.3549 63.5127 27.6486C63.6765 27.9422 63.7624 28.2729 63.7624 28.6091ZM50.5428 4.77124L50.1787 6.22736C50.1156 6.48103 49.9694 6.70625 49.7633 6.86713C49.5573 7.02801 49.3033 7.11526 49.0419 7.11499H31.608C31.3466 7.11526 31.0926 7.02801 30.8866 6.86713C30.6805 6.70625 30.5343 6.48103 30.4711 6.22736L30.1071 4.77124H50.5428ZM12.1999 17.6619C12.2 16.3346 12.522 15.0272 13.1385 13.8518C13.755 12.6764 14.6475 11.6682 15.7394 10.9136C16.8312 10.1591 18.0899 9.68069 19.4073 9.51959C20.7248 9.35848 22.0616 9.51945 23.3031 9.98868C24.5447 10.4579 25.6538 11.2214 26.5354 12.2136C27.4169 13.2057 28.0446 14.397 28.3644 15.6851C28.6843 16.9733 28.6868 18.3198 28.3718 19.6091C28.0567 20.8984 27.4336 22.092 26.5558 23.0875C26.4427 23.2156 26.359 23.3668 26.3106 23.5306C26.2622 23.6944 26.2501 23.8668 26.2753 24.0358L27.0538 29.2583L22.2319 25.9939C21.9966 25.8347 21.7116 25.7663 21.4297 25.8015C21.0892 25.8438 20.7463 25.8651 20.4031 25.865C18.2282 25.8625 16.1431 24.9975 14.6053 23.4596C13.0674 21.9218 12.2024 19.8367 12.1999 17.6619ZM59.0749 70.3962H21.5749C21.2642 70.3959 20.9664 70.2723 20.7467 70.0526C20.527 69.8329 20.4034 69.5351 20.4031 69.2244V39.1667L22.7977 36.1734C23.539 35.2412 23.9799 34.1061 24.0622 32.9179C24.1445 31.7298 23.8642 30.5447 23.2585 29.5192L27.9492 32.6948C28.1377 32.8224 28.3592 32.8923 28.5867 32.8961C28.8142 32.8999 29.0379 32.8373 29.2305 32.7161C29.4231 32.5949 29.5762 32.4202 29.6712 32.2134C29.7661 32.0066 29.7988 31.7766 29.7653 31.5516L28.671 24.2105C29.9017 22.6565 30.6696 20.7871 30.8866 18.8167C31.1035 16.8463 30.7609 14.8547 29.8978 13.0701C29.0347 11.2855 27.6862 9.78032 26.0069 8.72704C24.3275 7.67376 22.3854 7.11506 20.4031 7.11499V5.94312C20.4034 5.63242 20.527 5.33456 20.7467 5.11487C20.9664 4.89517 21.2642 4.7716 21.5749 4.77124H27.6912L28.1973 6.79584C28.3867 7.55688 28.8255 8.2326 29.4436 8.71523C30.0618 9.19786 30.8237 9.45961 31.608 9.45874H49.0419C49.8261 9.45961 50.5881 9.19786 51.2063 8.71523C51.8244 8.2326 52.2631 7.55688 52.4525 6.79584L52.9587 4.77124H59.0749C59.3856 4.7716 59.6835 4.89517 59.9032 5.11487C60.1229 5.33456 60.2465 5.63242 60.2468 5.94312V24.5799C60.1162 24.6302 59.9866 24.685 59.8595 24.7485L56.7735 26.2914C56.1073 26.6245 55.5387 27.1244 55.1228 27.7423C54.707 28.3601 54.4582 29.0751 54.4004 29.8177C54.3427 30.5602 54.4781 31.305 54.7934 31.9798C55.1087 32.6545 55.5932 33.2362 56.1998 33.6683C55.6394 34.0674 55.1825 34.5947 54.8672 35.2063C54.5519 35.8178 54.3874 36.4959 54.3874 37.1839C54.3874 37.8719 54.5519 38.55 54.8672 39.1616C55.1825 39.7731 55.6394 40.3004 56.1998 40.6995C55.6793 41.068 55.2477 41.548 54.9364 42.1045C54.2285 40.3905 52.9608 38.9669 51.34 38.0658L45.0196 34.5545C45.0672 33.5918 45.3516 32.6558 45.8474 31.8292L46.6911 30.4232C47.893 28.4197 48.5279 26.1273 48.5281 23.7909V17.1646C49.2979 15.9028 49.7035 14.4525 49.6999 12.9744C49.6999 12.6636 49.5765 12.3655 49.3567 12.1457C49.1369 11.926 48.8389 11.8025 48.5281 11.8025H40.1235C38.002 11.8049 35.9682 12.6487 34.4681 14.1487C32.968 15.6488 32.1242 17.6826 32.1218 19.8041V23.7909C32.1219 26.1273 32.7569 28.4197 33.9588 30.4232L34.8024 31.8292C35.2983 32.6558 35.5826 33.5918 35.6303 34.5545L29.3099 38.0658C28.0314 38.7766 26.9661 39.8162 26.2243 41.0769C25.4824 42.3377 25.091 43.7738 25.0906 45.2366V58.6775H27.4343V45.2366C27.4346 44.1917 27.7142 43.1659 28.2441 42.2654C28.774 41.3649 29.5349 40.6223 30.4481 40.1146L33.2937 38.5337V47.6452L31.4942 49.4447C30.9484 49.9875 30.5157 50.6332 30.2211 51.3444C29.9265 52.0556 29.776 52.8181 29.7781 53.5879V57.5056C29.7781 57.8164 29.9015 58.1145 30.1213 58.3343C30.3411 58.554 30.6391 58.6775 30.9499 58.6775H33.2937V56.3337H32.1218V53.5879C32.1206 53.126 32.2109 52.6685 32.3877 52.2418C32.5644 51.8151 32.824 51.4276 33.1515 51.1019L34.4656 49.7879L35.7796 51.1018C36.107 51.4275 36.3667 51.815 36.5434 52.2417C36.7202 52.6684 36.8105 53.126 36.8093 53.5879V56.3337H35.6374V58.6775H37.9812C38.292 58.6775 38.5901 58.554 38.8098 58.3343C39.0296 58.1145 39.1531 57.8164 39.1531 57.5056V53.5879C39.1551 52.8181 39.0045 52.0555 38.7099 51.3443C38.4154 50.6331 37.9827 49.9874 37.4369 49.4445L35.6374 47.6452V37.2316L36.1441 36.9501L39.2132 46.1575C39.291 46.3908 39.4402 46.5938 39.6398 46.7376C39.8393 46.8814 40.079 46.9587 40.3249 46.9587C40.5709 46.9587 40.8106 46.8814 41.0101 46.7376C41.2096 46.5938 41.3589 46.3908 41.4367 46.1575L44.5058 36.9501L45.0124 37.2316V51.8478C44.2305 52.1242 43.5716 52.6682 43.1519 53.3835C42.7323 54.0989 42.5791 54.9395 42.7193 55.7569C42.8596 56.5742 43.2842 57.3157 43.9183 57.8503C44.5524 58.3848 45.355 58.678 46.1843 58.678C47.0136 58.678 47.8163 58.3848 48.4503 57.8503C49.0844 57.3157 49.5091 56.5742 49.6493 55.7569C49.7895 54.9395 49.6363 54.0989 49.2167 53.3835C48.7971 52.6682 48.1381 52.1242 47.3562 51.8478V38.5337L50.2018 40.1146C51.115 40.6223 51.8759 41.3649 52.4058 42.2654C52.9356 43.1659 53.2152 44.1917 53.2156 45.2366V58.6775H55.5593V54.2054C55.8189 54.4798 56.1132 54.7192 56.4346 54.9177C56.9984 55.2696 57.6366 55.4852 58.2984 55.5474C58.9601 55.6096 59.6273 55.5165 60.2468 55.2757V69.2244C60.2465 69.5351 60.1229 69.8329 59.9032 70.0526C59.6835 70.2723 59.3856 70.3959 59.0749 70.3962ZM47.3562 55.1619C47.3562 55.3936 47.2875 55.6202 47.1587 55.8129C47.0299 56.0056 46.8469 56.1558 46.6328 56.2445C46.4186 56.3332 46.183 56.3564 45.9557 56.3112C45.7284 56.266 45.5196 56.1544 45.3557 55.9905C45.1918 55.8266 45.0802 55.6178 45.035 55.3905C44.9897 55.1632 45.0129 54.9275 45.1016 54.7134C45.1903 54.4993 45.3405 54.3163 45.5333 54.1875C45.726 54.0587 45.9525 53.99 46.1843 53.99C46.495 53.9904 46.7929 54.1139 47.0126 54.3336C47.2323 54.5533 47.3558 54.8512 47.3562 55.1619ZM44.6813 29.2173L43.8377 30.6233C43.0728 31.8982 42.6688 33.357 42.6687 34.8437V35.0498L40.3249 42.0811L37.9812 35.0498V34.8437C37.9811 33.357 37.577 31.8982 36.8122 30.6233L35.9685 29.2173C34.9852 27.578 34.4657 25.7024 34.4656 23.7909V22.1829L42.915 20.8829C44.0851 20.7052 45.2014 20.2712 46.1843 19.612V23.7909C46.1842 25.7024 45.6647 27.578 44.6813 29.2173ZM42.5587 18.5664L34.4656 19.8115V19.8041C34.4673 18.304 35.0639 16.8659 36.1246 15.8052C37.1853 14.7446 38.6234 14.1479 40.1235 14.1462H47.2365C47.003 15.2732 46.4292 16.3014 45.5926 17.0919C44.7561 17.8823 43.6971 18.397 42.5587 18.5664ZM62.672 51.4673L59.586 53.0102C59.2852 53.1606 58.951 53.2316 58.6151 53.2165C58.2792 53.2013 57.9528 53.1006 57.6668 52.9238C57.3807 52.7471 57.1446 52.5001 56.9809 52.2064C56.8172 51.9127 56.7312 51.5821 56.7312 51.2458C56.7299 50.8792 56.8314 50.5196 57.0242 50.2078C57.2169 49.8959 57.4932 49.6443 57.8217 49.4815L60.9078 47.9384C61.2085 47.7881 61.5427 47.7171 61.8786 47.7323C62.2145 47.7474 62.5409 47.8482 62.8269 48.0249C63.1129 48.2017 63.349 48.4487 63.5127 48.7423C63.6765 49.036 63.7624 49.3667 63.7624 49.7029C63.7637 50.0695 63.6622 50.4291 63.4695 50.741C63.2767 51.0528 63.0005 51.3044 62.672 51.4673Z" fill="#D9D9D9"/>
<path d="M40.325 61.0212C39.6296 61.0212 38.9499 61.2274 38.3718 61.6137C37.7936 62 37.343 62.5491 37.0769 63.1915C36.8108 63.8339 36.7412 64.5408 36.8769 65.2227C37.0125 65.9047 37.3474 66.5311 37.839 67.0228C38.3307 67.5145 38.9571 67.8493 39.6391 67.9849C40.3211 68.1206 41.0279 68.051 41.6703 67.7849C42.3127 67.5188 42.8618 67.0682 43.2481 66.49C43.6344 65.9119 43.8406 65.2322 43.8406 64.5369C43.8395 63.6048 43.4688 62.7112 42.8097 62.0521C42.1506 61.393 41.257 61.0223 40.325 61.0212ZM40.325 65.7087C40.0932 65.7087 39.8666 65.64 39.6739 65.5112C39.4812 65.3825 39.331 65.1995 39.2423 64.9853C39.1536 64.7712 39.1304 64.5356 39.1756 64.3082C39.2208 64.0809 39.3324 63.8721 39.4963 63.7082C39.6602 63.5443 39.869 63.4327 40.0963 63.3875C40.3237 63.3423 40.5593 63.3655 40.7734 63.4542C40.9875 63.5429 41.1706 63.6931 41.2993 63.8858C41.4281 64.0785 41.4968 64.3051 41.4968 64.5369C41.4965 64.8476 41.3729 65.1454 41.1532 65.3651C40.9335 65.5848 40.6356 65.7084 40.325 65.7087Z" fill="#D9D9D9"/>
<path d="M16.8875 16.49H14.5437V18.8337H16.8875V16.49Z" fill="#D9D9D9"/>
<path d="M21.575 16.49H19.2312V18.8337H21.575V16.49Z" fill="#D9D9D9"/>
<path d="M26.2625 16.49H23.9187V18.8337H26.2625V16.49Z" fill="#D9D9D9"/>
</svg>
