<svg width="18" height="18" viewBox="0 0 18 18" fill="none" xmlns="http://www.w3.org/2000/svg">
<path d="M17.8224 8.94698C17.8224 10.1704 17.7978 11.3974 17.8294 12.6208C17.8822 14.7864 16.5216 16.4599 14.7884 17.2052C14.0923 17.504 13.3611 17.6622 12.6052 17.6622C10.2392 17.6657 7.86968 17.6974 5.50366 17.6517C3.72124 17.6165 2.25522 16.8712 1.20405 15.4017C0.6521 14.6282 0.388428 13.7493 0.388428 12.7966C0.388428 10.2759 0.388428 7.7587 0.388428 5.23799C0.388428 3.18135 1.39038 1.74346 3.16929 0.808303C3.94272 0.404006 4.78296 0.23174 5.65835 0.228225C7.95405 0.228225 10.2533 0.214162 12.549 0.235256C14.3314 0.249318 15.8185 0.93135 16.9154 2.36573C17.5271 3.16729 17.8224 4.08838 17.8224 5.10088C17.8224 6.38057 17.8224 7.66377 17.8224 8.94698ZM1.68569 8.94698C1.68569 10.2372 1.68569 11.5239 1.68569 12.8142C1.68569 13.3907 1.81929 13.9321 2.11811 14.4208C2.9021 15.704 4.08686 16.3298 5.5564 16.3544C7.91538 16.3896 10.2779 16.3685 12.6404 16.3614C13.2205 16.3614 13.783 16.2419 14.3068 15.9923C15.7341 15.3103 16.5322 14.2239 16.5251 12.5927C16.5111 10.0966 16.5216 7.60049 16.5216 5.1044C16.5216 4.39776 16.3212 3.75088 15.9029 3.18135C15.0943 2.08799 13.9763 1.5501 12.6404 1.53604C10.2849 1.50791 7.92944 1.52549 5.57397 1.52901C5.07124 1.52901 4.58608 1.63096 4.11499 1.80674C2.82124 2.28838 1.6189 3.5083 1.67515 5.30479C1.71733 6.5212 1.68569 7.73409 1.68569 8.94698Z" fill="white"/>
<path d="M9.12486 12.6738C6.85728 12.6738 5.02916 10.8668 5.02564 8.6168C5.02212 6.40196 6.86431 4.5879 9.11783 4.5879C11.3784 4.58438 13.2135 6.39493 13.217 8.62735C13.217 10.8563 11.3854 12.6703 9.12486 12.6738ZM9.12486 11.3731C10.6682 11.3731 11.9198 10.1391 11.9163 8.62032C11.9128 7.11563 10.6612 5.88516 9.12486 5.88516C7.5815 5.88516 6.32291 7.11211 6.32291 8.62735C6.32642 10.1461 7.5815 11.3766 9.12486 11.3731Z" fill="white"/>
<path d="M13.6916 3.35742C14.1662 3.35742 14.5529 3.76172 14.5529 4.25742C14.5494 4.75312 14.1592 5.15391 13.6845 5.15039C13.217 5.14687 12.8338 4.74609 12.8338 4.26094C12.8302 3.76523 13.217 3.35742 13.6916 3.35742Z" fill="white"/>
</svg>
