<svg width="18" height="19" viewBox="0 0 18 19" fill="none" xmlns="http://www.w3.org/2000/svg">
<g clip-path="url(#clip0_106_1383)">
<path d="M15.5455 0.611328H2.45455C1.80356 0.611328 1.17924 0.869931 0.71892 1.33025C0.258603 1.79056 0 2.41489 0 3.06587L0 16.1568C0 16.8078 0.258603 17.4321 0.71892 17.8924C1.17924 18.3527 1.80356 18.6113 2.45455 18.6113H15.5455C16.1964 18.6113 16.8208 18.3527 17.2811 17.8924C17.7414 17.4321 18 16.8078 18 16.1568V3.06587C18 2.41489 17.7414 1.79056 17.2811 1.33025C16.8208 0.869931 16.1964 0.611328 15.5455 0.611328ZM6.13636 14.8559C6.1365 14.9058 6.12678 14.9552 6.10777 15.0014C6.08877 15.0475 6.06084 15.0895 6.02559 15.1248C5.99035 15.1602 5.94847 15.1882 5.90237 15.2073C5.85627 15.2265 5.80685 15.2363 5.75693 15.2363H4.14C4.09 15.2365 4.04047 15.2267 3.99425 15.2076C3.94803 15.1886 3.90603 15.1606 3.87068 15.1252C3.83532 15.0898 3.8073 15.0478 3.78823 15.0016C3.76916 14.9554 3.75941 14.9059 3.75955 14.8559V8.07724C3.75955 7.97633 3.79963 7.87956 3.87098 7.80822C3.94233 7.73687 4.0391 7.69678 4.14 7.69678H5.75693C5.85766 7.69705 5.95416 7.73726 6.02529 7.80858C6.09642 7.8799 6.13636 7.97651 6.13636 8.07724V14.8559ZM4.94795 7.05451C4.64454 7.05451 4.34794 6.96454 4.09566 6.79597C3.84338 6.6274 3.64675 6.38781 3.53064 6.10749C3.41453 5.82717 3.38415 5.51872 3.44334 5.22113C3.50253 4.92355 3.64864 4.6502 3.86319 4.43565C4.07773 4.22111 4.35108 4.075 4.64867 4.01581C4.94625 3.95661 5.25471 3.98699 5.53503 4.1031C5.81534 4.21922 6.05494 4.41584 6.2235 4.66812C6.39207 4.9204 6.48205 5.217 6.48205 5.52042C6.48205 5.92729 6.32042 6.31749 6.03272 6.60519C5.74502 6.89288 5.35482 7.05451 4.94795 7.05451ZM14.5882 14.8825C14.5883 14.9284 14.5794 14.974 14.5618 15.0165C14.5443 15.059 14.5185 15.0976 14.486 15.1301C14.4535 15.1626 14.4149 15.1884 14.3724 15.2059C14.3299 15.2234 14.2844 15.2324 14.2384 15.2322H12.4998C12.4538 15.2324 12.4083 15.2234 12.3658 15.2059C12.3233 15.1884 12.2847 15.1626 12.2521 15.1301C12.2196 15.0976 12.1939 15.059 12.1763 15.0165C12.1588 14.974 12.1499 14.9284 12.15 14.8825V11.7069C12.15 11.2324 12.2891 9.62871 10.9094 9.62871C9.84068 9.62871 9.62284 10.7261 9.57989 11.2191V14.8866C9.5799 14.9784 9.54375 15.0666 9.47925 15.1321C9.41476 15.1975 9.3271 15.235 9.23523 15.2363H7.55591C7.51002 15.2363 7.46459 15.2273 7.42221 15.2097C7.37983 15.1921 7.34134 15.1663 7.30894 15.1338C7.27655 15.1013 7.25088 15.0628 7.23341 15.0203C7.21595 14.9779 7.20702 14.9324 7.20716 14.8866V8.04758C7.20702 8.00169 7.21595 7.95623 7.23341 7.9138C7.25088 7.87137 7.27655 7.83281 7.30894 7.80031C7.34134 7.76782 7.37983 7.74204 7.42221 7.72445C7.46459 7.70686 7.51002 7.69781 7.55591 7.69781H9.23523C9.32799 7.69781 9.41696 7.73466 9.48255 7.80025C9.54815 7.86585 9.585 7.95481 9.585 8.04758V8.63871C9.98182 8.04246 10.5699 7.58428 11.8248 7.58428C14.6045 7.58428 14.5861 10.18 14.5861 11.6056L14.5882 14.8825Z" fill="white"/>
</g>
<defs>
<clipPath id="clip0_106_1383">
<rect width="18" height="18" fill="white" transform="translate(0 0.611328)"/>
</clipPath>
</defs>
</svg>
