<svg width="155" height="40" viewBox="0 0 155 40" fill="none" xmlns="http://www.w3.org/2000/svg">
<g clip-path="url(#clip0_102_737)">
<path d="M24.2348 0.0960532C22.1443 -0.264363 19.8756 0.38147 18.2457 2.25855L14.4618 6.6148C13.5179 7.7023 12.2505 8.44605 10.854 8.73355L5.25398 9.8898C2.82558 10.3898 1.1343 12.0877 0.40332 14.1294L7.4203 15.9336C12.8893 17.3398 15.6249 18.0419 17.783 16.7752C19.9411 15.5065 20.711 12.7461 22.2487 7.22314L24.2348 0.0960532Z" fill="#0BB9EE"/>
<path d="M39.1944 24.7084C39.5671 22.5668 38.9364 20.2355 37.0773 18.5647L32.7958 14.7147C31.727 13.7543 30.996 12.4647 30.7135 11.0438L29.5791 5.34593C29.0734 2.80426 27.3248 1.05635 25.2403 0.350098L23.4528 7.5501C22.0707 13.1147 21.3807 15.898 22.6256 18.0938C23.8726 20.2897 26.5856 21.073 32.0137 22.6376L39.1944 24.7084Z" fill="#DC80FE"/>
<path d="M14.8367 39.8459C16.9887 40.2938 19.3618 39.6709 21.051 37.7271L24.8328 33.3709C25.7768 32.2834 27.0442 31.5396 28.4406 31.2521L34.0407 30.098C36.5203 29.5855 38.232 27.8271 38.9364 25.7271L31.6901 23.8646C26.2211 22.4584 23.4855 21.7563 21.3274 23.023C19.1693 24.2917 18.3994 27.0521 16.8617 32.575L14.8367 39.8459Z" fill="#740CFF"/>
<path d="M0.126857 15.146C-0.29494 17.321 0.323422 19.7147 2.21946 21.4189L6.5009 25.2668C7.56972 26.2272 8.3007 27.5168 8.58326 28.9377L9.71966 34.6356C10.209 37.0897 11.8573 38.8043 13.8455 39.5564L15.6617 32.246C17.0438 26.6814 17.7338 23.8981 16.4868 21.7022C15.2399 19.5064 12.5269 18.7231 7.09879 17.1585L0.126857 15.146Z" fill="#3B3CFE"/>
<path d="M147.909 27.7669C144.682 27.7669 143.229 26.2294 142.733 24.2169C142.704 24.069 142.676 23.9211 142.676 23.7731C142.676 22.8273 143.46 22.1752 144.218 22.1752C144.77 22.1752 145.293 22.5002 145.497 23.3002C145.817 24.4836 146.572 25.2815 148.085 25.2815C149.539 25.2815 150.411 24.394 150.411 23.3586C150.411 20.9919 144.742 20.4002 144.742 16.4961C144.742 14.0398 146.777 11.9106 150.092 11.9106C152.651 11.9106 154.279 13.1523 154.861 15.0169C154.918 15.194 154.949 15.3711 154.949 15.5502C154.949 16.4086 154.279 17.0294 153.552 17.0294C153.088 17.0294 152.563 16.7336 152.273 15.994C151.865 14.9877 151.11 14.3086 149.918 14.3086C148.698 14.3086 147.825 15.1377 147.825 16.1731C147.825 18.6586 153.552 19.0419 153.552 23.0065C153.55 25.519 151.544 27.7669 147.909 27.7669Z" fill="white"/>
<path d="M135.559 27.7669C132.332 27.7669 130.878 26.2294 130.382 24.2169C130.354 24.069 130.325 23.9211 130.325 23.7731C130.325 22.8273 131.109 22.1752 131.867 22.1752C132.42 22.1752 132.942 22.5002 133.146 23.3002C133.466 24.4836 134.221 25.2815 135.735 25.2815C137.188 25.2815 138.061 24.394 138.061 23.3586C138.061 20.9919 132.391 20.4002 132.391 16.4961C132.391 14.0398 134.426 11.9106 137.741 11.9106C140.301 11.9106 141.928 13.1523 142.51 15.0169C142.567 15.194 142.598 15.3711 142.598 15.5502C142.598 16.4086 141.928 17.0294 141.202 17.0294C140.737 17.0294 140.213 16.7336 139.922 15.994C139.514 14.9877 138.759 14.3086 137.567 14.3086C136.347 14.3086 135.475 15.1377 135.475 16.1731C135.475 18.6586 141.202 19.0419 141.202 23.0065C141.2 25.519 139.193 27.7669 135.559 27.7669Z" fill="white"/>
<path d="M129.195 11.998C129.95 11.998 130.62 12.5001 130.62 13.448C130.62 13.6251 130.591 13.8334 130.532 14.0688L127.276 26.523C127.073 27.2918 126.461 27.648 125.822 27.648C125.038 27.648 124.281 27.1147 124.281 26.198C124.281 26.0501 124.281 25.9022 124.338 25.7251L124.6 24.7188C123.408 26.6709 121.693 27.7668 119.686 27.7668C116.633 27.7668 115.237 25.1626 115.237 21.998C115.237 21.2293 115.325 20.4293 115.47 19.6313C116.342 15.223 119.162 11.8813 122.913 11.8813C125.151 11.8813 126.635 13.4188 126.983 15.6688L127.622 13.2438C127.856 12.3834 128.554 11.998 129.195 11.998ZM121.199 24.9563C123.38 24.9563 125.27 22.7376 125.822 19.898C125.939 19.3355 125.996 18.8043 125.996 18.3001C125.996 16.1397 124.979 14.7209 123.234 14.7209C121.054 14.7209 119.192 16.8501 118.611 19.7209C118.494 20.3126 118.437 20.8751 118.437 21.3772C118.437 23.4772 119.395 24.9563 121.199 24.9563Z" fill="white"/>
<path d="M109.653 11.9106C112.706 11.9106 114.102 14.5148 114.102 17.6794C114.102 18.4481 114.014 19.2481 113.869 20.0461C113.025 24.3648 110.234 27.7961 106.426 27.7961C104.217 27.7961 102.734 26.2877 102.355 24.0981L99.9126 33.3877C99.7099 34.1565 99.0977 34.5127 98.4588 34.5127C97.7033 34.5127 96.9478 33.9794 96.9478 33.0627C96.9478 32.9148 96.9478 32.7669 97.0051 32.5898L102.065 13.2419C102.298 12.3836 102.994 11.969 103.635 11.969C104.391 11.969 105.06 12.4711 105.06 13.4481C105.06 13.6252 105.031 13.8336 104.972 14.069L104.739 14.9565C105.93 13.0044 107.646 11.9106 109.653 11.9106ZM110.728 19.9565C110.845 19.3648 110.902 18.8315 110.902 18.3294C110.902 16.2002 109.913 14.7502 108.14 14.7502C105.959 14.7502 104.069 16.9398 103.516 19.7794C103.4 20.3419 103.342 20.8731 103.342 21.3773C103.342 23.5377 104.331 24.9856 106.076 24.9856C108.256 24.9856 110.146 22.8565 110.728 19.9565Z" fill="white"/>
<path d="M94.8653 11.8794C96.9579 11.8794 98.5284 13.1815 98.5284 15.6961C98.5284 16.2877 98.4403 16.9377 98.2663 17.6481L95.9689 26.4336C95.7355 27.2919 95.0393 27.6461 94.3984 27.6461C93.6429 27.6461 92.9447 27.1731 92.9447 26.344C92.9447 26.1961 92.9733 26.0481 93.002 25.9002L95.1253 17.794C95.242 17.3211 95.2994 16.9065 95.2994 16.5523C95.2994 15.1919 94.5151 14.5711 93.4975 14.5711C92.0724 14.5711 91.1141 15.6356 90.59 17.619L88.264 26.4356C88.0612 27.2336 87.3917 27.6481 86.6935 27.6481C85.9666 27.6481 85.2684 27.1752 85.2684 26.3461C85.2684 26.1981 85.297 26.0502 85.3257 25.9023L87.449 17.7961C87.5657 17.3231 87.6231 16.9086 87.6231 16.5544C87.6231 15.194 86.8389 14.5731 85.7905 14.5731C84.3941 14.5731 83.4645 15.6981 82.971 17.4731V17.444L80.6163 26.4669C80.4136 27.2648 79.7441 27.6211 79.1339 27.6211C78.3784 27.6211 77.6228 27.119 77.6228 26.2002C77.6228 26.0523 77.6228 25.9044 77.6801 25.7273L80.9665 13.244C81.1999 12.3565 81.8961 11.9419 82.5943 11.9419C83.3498 11.9419 84.0194 12.444 84.0194 13.244C84.0194 13.3919 83.9907 13.5398 83.962 13.6877L83.9334 13.7773C84.7483 12.5648 85.94 11.8836 87.4224 11.8836C88.9929 11.8836 90.3299 12.7127 90.6207 14.4877C91.5523 12.8273 93.0348 11.8794 94.8653 11.8794Z" fill="white"/>
<path d="M69.058 27.7961C65.4809 27.7961 63.5337 25.2231 63.5337 21.5836C63.5337 20.9336 63.591 20.2815 63.7077 19.5711C64.5227 14.8961 67.6329 11.8794 71.47 11.8794C75.1925 11.8794 77.023 14.5419 77.023 18.0627C77.023 18.7127 76.9657 19.3648 76.8489 20.044C76.0074 24.8377 72.8972 27.7961 69.058 27.7961ZM69.3201 24.9273C71.4721 24.9273 73.3026 22.8565 73.8554 19.8981C73.9721 19.3356 74.0295 18.8044 74.0295 18.3002C74.0295 16.1398 73.0118 14.7211 71.21 14.7211C69.058 14.7211 67.2561 16.8211 66.7033 19.6919C66.5866 20.3127 66.5293 20.8752 66.5293 21.3773C66.5293 23.6836 67.6636 24.9273 69.3201 24.9273Z" fill="white"/>
<path d="M59.2092 27.352C58.5397 27.5582 57.8435 27.6478 57.174 27.6478C54.033 27.6478 51.1255 25.4874 51.1255 21.4062C51.1255 20.577 51.2422 19.6895 51.5043 18.7145C52.7246 14.0103 56.273 12.0874 59.3833 12.0874C60.4582 12.0874 61.4759 12.3249 62.3481 12.7687C63.075 13.1228 63.3658 13.7749 63.3658 14.3374C63.3658 15.0187 62.9583 15.6103 62.3195 15.6103C62.1168 15.6103 61.8833 15.552 61.6499 15.4041C61.0398 15.0499 60.3415 14.8707 59.6147 14.8707C57.5794 14.8707 55.3107 16.2603 54.5265 19.2791C54.3524 19.8999 54.2931 20.4624 54.2931 20.9645C54.2931 23.5374 56.0949 24.9291 58.0155 24.9291C58.3636 24.9291 58.7137 24.8707 59.0618 24.7812C59.2072 24.752 59.3526 24.7228 59.4693 24.7228C60.1081 24.7228 60.4296 25.1957 60.4296 25.7291C60.4296 26.3749 60.0221 27.0853 59.2092 27.352Z" fill="white"/>
</g>
<defs>
<clipPath id="clip0_102_737">
<rect width="155" height="40" fill="white"/>
</clipPath>
</defs>
</svg>
