<svg width="25" height="25" viewBox="0 0 25 25" fill="none" xmlns="http://www.w3.org/2000/svg">
<g clip-path="url(#clip0_245_1028)">
<path d="M17.2412 4.54175H15.1318V18.6511H9.50684V4.54175H7.39746L12.3193 0.322998L17.2412 4.54175Z" fill="white"/>
<path d="M4.58496 13.0262H3.17871L6.69434 8.80811L8.10059 10.4954V18.6512H4.58496V13.0262Z" fill="white"/>
<path d="M16.5381 18.6512V10.4954L17.9443 8.80811L21.46 13.0262H20.0537V18.6512H16.5381Z" fill="white"/>
<path d="M8.01758 20.0574L5.90853 24.323H0.319484L3.88166 20.0574H8.01758Z" fill="white"/>
<path d="M15.0484 20.0574L17.1577 24.323H7.48065L9.5897 20.0574H15.0484Z" fill="white"/>
<path d="M16.621 20.0574H20.7572L24.3193 24.323H18.7302L16.621 20.0574Z" fill="white"/>
</g>
<defs>
<clipPath id="clip0_245_1028">
<rect width="24" height="24" fill="white" transform="matrix(-1 0 0 1 24.3193 0.322998)"/>
</clipPath>
</defs>
</svg>
