<svg width="22" height="22" viewBox="0 0 22 22" fill="none" xmlns="http://www.w3.org/2000/svg">
    <g clip-path="url(#clip0_104_866)">
        <path d="M11.4891 6.04549L10.6016 7.82031H3.05078V5.58594H7.13281C7.96207 5.58594 8.63672 4.91128 8.63672 4.08203V0H18.3047C18.6606 0 18.9492 0.288578 18.9492 0.644531V4.38281H14.1793C13.0327 4.38281 12.0019 5.01991 11.4891 6.04549Z" fill="white"/>
        <path d="M7.13281 4.29699H3.42835L7.34766 0.377686V4.08215C7.34766 4.20062 7.25128 4.29699 7.13281 4.29699Z" fill="white"/>
        <path d="M10.3555 14.2656V12.7617H11.6445V14.2656C11.6445 14.6216 11.9331 14.9102 12.2891 14.9102H13.793V16.1992H12.2891C11.9331 16.1992 11.6445 16.4878 11.6445 16.8438V18.3477H10.3555V16.8438C10.3555 16.4878 10.0669 16.1992 9.71094 16.1992H8.20703V14.9102H9.71094C10.0669 14.9102 10.3555 14.6216 10.3555 14.2656Z" fill="white"/>
        <path d="M1.71875 9.10938H11C11.2441 9.10938 11.4673 8.97145 11.5765 8.75308L12.6421 6.62196C12.9332 6.03969 13.5283 5.67188 14.1793 5.67188H20.2812C21.2305 5.67188 22 6.4414 22 7.39062V20.2812C22 21.2305 21.2305 22 20.2812 22H1.71875C0.769527 22 0 21.2305 0 20.2812V10.8281C0 9.8789 0.769527 9.10938 1.71875 9.10938ZM6.91797 16.8438C6.91797 17.1997 7.20655 17.4883 7.5625 17.4883H9.06641V18.9922C9.06641 19.3481 9.35498 19.6367 9.71094 19.6367H12.2891C12.645 19.6367 12.9336 19.3481 12.9336 18.9922V17.4883H14.4375C14.7935 17.4883 15.082 17.1997 15.082 16.8438V14.2656C15.082 13.9097 14.7935 13.6211 14.4375 13.6211H12.9336V12.1172C12.9336 11.7612 12.645 11.4727 12.2891 11.4727H9.71094C9.35498 11.4727 9.06641 11.7612 9.06641 12.1172V13.6211H7.5625C7.20655 13.6211 6.91797 13.9097 6.91797 14.2656V16.8438Z" fill="white"/>
        <path d="M1.76172 5.32007V7.82033H1.71875C1.08002 7.82033 0.487609 8.02108 0 8.36191V7.60549C0 6.51022 0.749031 5.58682 1.76172 5.32007Z" fill="white"/>
    </g>
    <defs>
        <clipPath id="clip0_104_866">
            <rect width="22" height="22" fill="white" transform="matrix(-1 0 0 1 22 0)"/>
        </clipPath>
    </defs>
</svg>