<svg width="46" height="46" viewBox="0 0 46 46" fill="none" xmlns="http://www.w3.org/2000/svg">
<g clip-path="url(#clip0_102_325)">
<path d="M14.1278 27.4412H21.376V24.4763H17.0928V17.5563C17.0928 14.4626 14.5848 11.9547 11.4911 11.9547H10.0907H8.69024C5.59649 11.9547 3.08862 14.4627 3.08862 17.5563V19.0388H14.1279V27.4412H14.1278Z" fill="white"/>
<path d="M22.6945 30.0779H14.1279V34.3613H19.8937V42.1569H24.177V31.5604C24.177 30.7429 23.5119 30.0779 22.6945 30.0779Z" fill="white"/>
<path d="M24.0129 27.6589C25.6394 28.21 26.8138 29.7501 26.8138 31.5604V31.9982H29.4505V29.3615H32.0872V31.9982H34.7239V34.6349H32.0872V37.2716H29.4505V34.6349H26.8138V42.1569H45.2879V24.4763H24.0129V27.6589Z" fill="white"/>
<path d="M34.0813 21.8395H42.487V17.5563C42.487 14.4625 39.9791 11.9547 36.8854 11.9547H35.4849H34.0845C31.4451 11.9547 29.2334 13.7807 28.6404 16.2379H33.3811L34.0813 21.8395Z" fill="white"/>
<path d="M35.485 11.9546C37.8052 11.9546 39.6862 10.0737 39.6862 7.75338C39.6862 5.43309 37.8052 3.55212 35.485 3.55212C33.1647 3.55212 31.2837 5.43309 31.2837 7.75338C31.2837 10.0737 33.1647 11.9546 35.485 11.9546Z" fill="white"/>
<path d="M10.0907 11.9546C12.411 11.9546 14.2919 10.0737 14.2919 7.75338C14.2919 5.43309 12.411 3.55212 10.0907 3.55212C7.77037 3.55212 5.8894 5.43309 5.8894 7.75338C5.8894 10.0737 7.77037 11.9546 10.0907 11.9546Z" fill="white"/>
<path d="M31.4241 21.8395L31.0535 18.8746H24.3748L24.7453 21.8395H31.4241Z" fill="white"/>
<path d="M11.4912 21.6754H0.287842V42.1568H2.92456V34.3612H8.85445V42.1568H11.4912V21.6754Z" fill="white"/>
</g>
<defs>
<clipPath id="clip0_102_325">
<rect width="45" height="45" fill="white" transform="translate(0.287842 0.354492)"/>
</clipPath>
</defs>
</svg>
