<svg width="21" height="21" viewBox="0 0 21 21" fill="none" xmlns="http://www.w3.org/2000/svg">
<path fill-rule="evenodd" clip-rule="evenodd" d="M2.0885 10.7037C2.0885 6.10056 5.81964 2.36865 10.4218 2.36865C15.024 2.36865 18.7552 6.10056 18.7552 10.7003C18.7552 15.3034 15.024 19.0353 10.4218 19.0353C8.86148 19.0353 7.40057 18.6066 6.15229 17.8588L2.37657 18.905L3.44996 15.2691C2.58919 13.9588 2.0885 12.3879 2.0885 10.7037ZM15.4375 13.0223C15.5508 13.0731 15.625 13.1825 15.6367 13.3075C15.6484 13.452 15.6523 13.6239 15.625 13.8231V13.8348C15.5469 14.3582 15.2422 14.8231 14.8086 15.1317C14.6445 15.2528 14.4414 15.3661 14.1992 15.4598C13.6719 15.659 13.2109 15.6551 12.9609 15.6317C12.3476 15.5575 11.4336 15.3778 10.4258 14.8934C9.33593 14.37 8.64843 13.7411 8.09374 13.2293C7.60156 12.7801 6.87499 12.1004 6.20703 11.0028C5.81249 10.3582 5.55078 9.74887 5.37109 9.23715C5.17968 8.69027 5.14843 8.09652 5.30859 7.54183C5.31445 7.5223 5.32031 7.50375 5.32617 7.48519C5.33203 7.46664 5.33789 7.44808 5.34374 7.42855C5.48828 6.99105 5.70703 6.65902 5.89062 6.43636C6.04296 6.24886 6.28515 6.02621 6.61718 5.97933C6.73437 5.96371 6.89453 5.96371 7.07421 5.96761C7.13671 5.96761 7.19531 5.96761 7.24999 5.97152C7.41015 5.97933 7.56249 6.03792 7.67968 6.14339C7.67968 6.14339 7.71093 6.17074 7.73828 6.19808C7.89843 6.36214 8.31249 7.42855 8.51952 7.97933C8.64062 8.31136 8.66406 8.67465 8.55468 9.01058C8.55468 9.01058 8.55077 9.01449 8.55077 9.0184C8.37499 9.56137 7.98046 9.85434 7.83593 9.95199C8.12499 10.4793 8.64062 11.2879 9.51952 12.0418C10.2539 12.6747 10.9805 13.0497 11.5195 13.2723C11.6328 13.3192 11.7617 13.2879 11.8437 13.1942L12.8828 12.0223C12.9453 11.9481 13.0508 11.9286 13.1367 11.9676C13.5195 12.1434 13.9032 12.3191 14.287 12.4949C14.6708 12.6707 15.0546 12.8465 15.4375 13.0223Z" fill="white"/>
</svg>
