<svg width="1302" height="155" viewBox="0 0 1302 155" fill="none" xmlns="http://www.w3.org/2000/svg">
<g filter="url(#filter0_b_2017_160)">
<path d="M21.6695 82.1662L21.6695 123.729L46.8203 123.729C57.7142 123.918 65.8136 122.663 71.1185 119.963C76.2813 117.169 78.8627 111.39 78.8627 102.628C78.7679 94.1969 75.9497 88.5841 70.408 85.7896C64.8663 83.2319 57.4063 82.0241 48.0281 82.1662L21.6695 82.1662ZM21.6695 35.8433L21.6695 73.7116L46.6782 73.7116C56.8616 73.7116 64.0374 71.9117 68.2055 68.3119C72.1842 64.9017 74.1262 60.0468 74.0314 53.7472C74.1262 47.2582 71.9474 42.6165 67.4951 39.8219C62.948 37.1695 55.2986 35.8433 44.5467 35.8433L21.6695 35.8433ZM54.5644 132.184H11.7939L11.7939 27.4597L49.5911 27.4597C61.8113 27.5544 70.6448 29.9226 76.0918 34.5644C81.444 39.3009 84.0728 45.6952 83.9781 53.7472C83.8833 60.9467 82.1782 66.3463 78.8627 69.946C75.4524 73.4984 71.5685 75.6298 67.2109 76.3403V76.6245C81.5625 79.419 88.7383 88.0868 88.7383 102.628C88.6435 113.427 85.4938 121.053 79.2889 125.505C72.9894 129.957 64.7479 132.184 54.5644 132.184ZM179.963 132.184L108.845 132.184L108.845 27.4597L178.542 27.4597V35.8433L118.72 35.8433L118.72 73.7116L172.716 73.7116V82.1662L118.72 82.1662V123.729L179.963 123.729V132.184ZM267.92 132.184L207.672 40.8166H207.387L207.387 132.184H197.512L197.512 27.4597H208.666L269.199 118.969H269.483V27.4597L279.43 27.4597V132.184H267.92ZM374.065 132.184H302.946V27.4597L372.644 27.4597V35.8433L312.822 35.8433V73.7116H366.818V82.1662H312.822V123.729H374.065V132.184ZM400.779 132.184H390.903V27.4597L458.398 27.4597V35.8433L400.779 35.8433V73.7116H453.141V82.1662H400.779V132.184ZM486.249 132.184L476.373 132.184V27.4597H486.249V132.184ZM503.939 35.8433V27.4597L580.173 27.4597V35.8433L546.994 35.8433V132.184H537.119V35.8433H503.939ZM588.841 100.923H598.433C599.427 110.112 602.672 116.695 608.166 120.674C613.613 124.653 620.41 126.595 628.557 126.5C637.982 126.405 644.827 124.179 649.089 119.821C653.163 115.653 655.199 110.656 655.199 104.83C655.199 100.757 654.323 97.4177 652.571 94.8126C650.818 92.2549 648.403 90.2182 645.324 88.7026C642.293 87.0448 638.93 85.7186 635.235 84.7239C631.446 83.7766 627.467 82.853 623.299 81.9531C619.321 81.0058 615.46 79.8927 611.718 78.6138C607.929 77.3823 604.472 75.7009 601.346 73.5695C598.456 71.438 596.088 68.6672 594.241 65.2569C592.299 61.9414 591.328 57.7732 591.328 52.7526C591.328 45.1742 594.335 38.6141 600.351 33.0724C606.366 27.6728 615.2 24.8783 626.852 24.6888C638.645 24.7835 647.503 27.8386 653.423 33.8539C659.249 39.7746 662.115 47.1398 662.02 55.9497H652.571C652.476 47.9924 649.895 42.1191 644.827 38.3299C639.806 34.8249 633.814 33.0724 626.852 33.0724C616.858 33.3092 609.871 35.7959 605.893 40.5324C601.914 45.2689 600.351 50.5027 601.203 56.2339C601.772 59.5494 603.193 62.2255 605.466 64.2622C607.598 66.3937 610.203 68.0751 613.281 69.3066C616.408 70.5855 619.842 71.6512 623.583 72.5037C627.278 73.4037 631.067 74.2799 634.951 75.1325C638.93 75.9377 642.719 76.9561 646.319 78.1875C649.918 79.4664 653.115 81.2189 655.91 83.445C658.752 85.5765 660.978 88.3 662.588 91.6155C664.246 95.0731 665.075 99.336 665.075 104.404C664.696 124.487 651.955 134.67 626.852 134.954C615.673 134.954 606.65 132.089 599.782 126.358C592.583 120.721 588.936 112.243 588.841 100.923Z" fill="#EFEFED"/>
</g>
<g clip-path="url(#clip0_2017_160)">
<path d="M798.343 0.459997C790.291 -0.927608 781.553 1.55885 775.275 8.78562L760.701 25.5572C757.066 29.7441 752.184 32.6075 746.806 33.7144L725.236 38.1659C715.883 40.0909 709.369 46.6279 706.553 54.4883L733.58 61.4344C754.645 66.8484 765.181 69.5515 773.493 64.6748C781.805 59.7901 784.771 49.1625 790.693 27.8993L798.343 0.459997Z" fill="#EFEFED"/>
<path d="M855.962 95.2181C857.397 86.9727 854.968 77.9974 847.807 71.5647L831.317 56.7422C827.2 53.0446 824.385 48.0797 823.296 42.6095L818.927 20.6725C816.979 10.8871 810.244 4.1576 802.216 1.43854L795.331 29.1585C790.008 50.5822 787.35 61.298 792.145 69.752C796.948 78.2059 807.397 81.2218 828.304 87.2454L855.962 95.2181Z" fill="#EFEFED"/>
<path d="M762.145 153.498C770.434 155.222 779.574 152.824 786.08 145.34L800.647 128.569C804.282 124.382 809.164 121.518 814.542 120.412L836.112 115.968C845.662 113.995 852.255 107.225 854.968 99.1403L827.058 91.9697C805.993 86.5557 795.457 83.8526 787.145 88.7293C778.833 93.614 775.867 104.242 769.945 125.505L762.145 153.498Z" fill="#EFEFED"/>
<path d="M705.489 58.4026C703.864 66.7764 706.246 75.9923 713.549 82.5533L730.039 97.3678C734.156 101.065 736.971 106.03 738.059 111.501L742.436 133.438C744.321 142.886 750.67 149.487 758.328 152.383L765.323 124.238C770.646 102.814 773.304 92.0981 768.501 83.6442C763.698 75.1902 753.249 72.1744 732.342 66.1507L705.489 58.4026Z" fill="#EFEFED"/>
<path d="M1274.69 106.993C1262.26 106.993 1256.66 101.073 1254.75 93.3254C1254.64 92.7559 1254.53 92.1864 1254.53 91.6169C1254.53 87.9755 1257.55 85.4649 1260.47 85.4649C1262.6 85.4649 1264.61 86.7162 1265.4 89.7962C1266.63 94.352 1269.54 97.424 1275.37 97.424C1280.97 97.424 1284.33 94.0071 1284.33 90.0208C1284.33 80.9091 1262.49 78.6312 1262.49 63.6001C1262.49 54.1436 1270.33 45.9463 1283.1 45.9463C1292.95 45.9463 1299.22 50.7267 1301.46 57.9054C1301.68 58.5871 1301.8 59.2689 1301.8 59.9587C1301.8 63.2633 1299.22 65.6535 1296.42 65.6535C1294.63 65.6535 1292.62 64.5145 1291.5 61.6671C1289.93 57.7931 1287.02 55.1783 1282.43 55.1783C1277.73 55.1783 1274.37 58.3706 1274.37 62.3569C1274.37 71.9258 1296.42 73.4016 1296.42 88.6652C1296.42 98.3384 1288.69 106.993 1274.69 106.993Z" fill="#EFEFED"/>
<path d="M1227.12 106.993C1214.69 106.993 1209.09 101.073 1207.18 93.3254C1207.07 92.7559 1206.96 92.1864 1206.96 91.6169C1206.96 87.9755 1209.98 85.4649 1212.9 85.4649C1215.03 85.4649 1217.04 86.7162 1217.83 89.7962C1219.06 94.352 1221.97 97.424 1227.8 97.424C1233.4 97.424 1236.76 94.0071 1236.76 90.0208C1236.76 80.9091 1214.92 78.6312 1214.92 63.6001C1214.92 54.1436 1222.76 45.9463 1235.53 45.9463C1245.38 45.9463 1251.65 50.7267 1253.89 57.9054C1254.11 58.5871 1254.23 59.2689 1254.23 59.9587C1254.23 63.2633 1251.65 65.6535 1248.85 65.6535C1247.06 65.6535 1245.04 64.5145 1243.92 61.6671C1242.36 57.7931 1239.45 55.1783 1234.86 55.1783C1230.16 55.1783 1226.8 58.3706 1226.8 62.3569C1226.8 71.9258 1248.85 73.4016 1248.85 88.6652C1248.85 98.3384 1241.12 106.993 1227.12 106.993Z" fill="#EFEFED"/>
<path d="M1202.61 46.2831C1205.52 46.2831 1208.1 48.2161 1208.1 51.8656C1208.1 52.5474 1207.99 53.3495 1207.76 54.2558L1195.22 102.204C1194.44 105.164 1192.08 106.536 1189.62 106.536C1186.6 106.536 1183.68 104.482 1183.68 100.953C1183.68 100.384 1183.68 99.8142 1183.9 99.1324L1184.91 95.2583C1180.32 102.774 1173.71 106.993 1165.98 106.993C1154.23 106.993 1148.85 96.9668 1148.85 84.7831C1148.85 81.8234 1149.19 78.7434 1149.75 75.6715C1153.11 58.6994 1163.96 45.834 1178.41 45.834C1187.03 45.834 1192.75 51.7533 1194.09 60.4158L1196.55 51.0796C1197.45 47.767 1200.14 46.2831 1202.61 46.2831ZM1171.81 96.1727C1180.21 96.1727 1187.49 87.6305 1189.62 76.6981C1190.07 74.5325 1190.29 72.4872 1190.29 70.5461C1190.29 62.2285 1186.37 56.7664 1179.65 56.7664C1171.25 56.7664 1164.08 64.9636 1161.84 76.0163C1161.39 78.2943 1161.17 80.4599 1161.17 82.3929C1161.17 90.4779 1164.86 96.1727 1171.81 96.1727Z" fill="#EFEFED"/>
<path d="M1127.34 45.9463C1139.1 45.9463 1144.48 55.9723 1144.48 68.156C1144.48 71.1157 1144.14 74.1957 1143.58 77.2676C1140.33 93.8948 1129.58 107.105 1114.91 107.105C1106.4 107.105 1100.69 101.298 1099.23 92.8682L1089.82 128.633C1089.04 131.593 1086.69 132.964 1084.23 132.964C1081.32 132.964 1078.41 130.911 1078.41 127.382C1078.41 126.812 1078.41 126.243 1078.63 125.561L1098.11 51.0716C1099.01 47.767 1101.69 46.1709 1104.16 46.1709C1107.07 46.1709 1109.65 48.1039 1109.65 51.8657C1109.65 52.5474 1109.54 53.3495 1109.31 54.2559L1108.41 57.6727C1113 50.1572 1119.61 45.9463 1127.34 45.9463ZM1131.48 76.9227C1131.93 74.6448 1132.15 72.5915 1132.15 70.6585C1132.15 62.4612 1128.34 56.8787 1121.51 56.8787C1113.11 56.8787 1105.83 65.3086 1103.7 76.241C1103.26 78.4066 1103.03 80.4519 1103.03 82.393C1103.03 90.7106 1106.84 96.285 1113.56 96.285C1121.96 96.285 1129.24 88.0877 1131.48 76.9227Z" fill="#EFEFED"/>
<path d="M1070.38 45.826C1078.44 45.826 1084.49 50.839 1084.49 60.5202C1084.49 62.7981 1084.15 65.3006 1083.48 68.0357L1074.63 101.86C1073.74 105.164 1071.05 106.528 1068.59 106.528C1065.68 106.528 1062.99 104.707 1062.99 101.515C1062.99 100.945 1063.1 100.376 1063.21 99.8062L1071.39 68.5971C1071.84 66.7764 1072.06 65.1803 1072.06 63.8167C1072.06 58.5791 1069.04 56.1889 1065.12 56.1889C1059.63 56.1889 1055.94 60.2875 1053.92 67.9234L1044.96 101.868C1044.18 104.94 1041.6 106.536 1038.91 106.536C1036.11 106.536 1033.42 104.715 1033.42 101.523C1033.42 100.953 1033.53 100.384 1033.64 99.8142L1041.82 68.6052C1042.27 66.7844 1042.49 65.1883 1042.49 63.8247C1042.49 58.5871 1039.47 56.1969 1035.43 56.1969C1030.05 56.1969 1026.47 60.5282 1024.57 67.3619V67.2496L1015.5 101.988C1014.72 105.06 1012.14 106.431 1009.79 106.431C1006.88 106.431 1003.97 104.498 1003.97 100.961C1003.97 100.392 1003.97 99.8222 1004.19 99.1405L1016.85 51.0796C1017.75 47.6628 1020.43 46.0666 1023.12 46.0666C1026.03 46.0666 1028.61 47.9996 1028.61 51.0796C1028.61 51.6491 1028.5 52.2186 1028.39 52.7881L1028.28 53.133C1031.42 48.4648 1036.01 45.842 1041.72 45.842C1047.77 45.842 1052.92 49.0343 1054.04 55.8681C1057.62 49.4755 1063.33 45.826 1070.38 45.826Z" fill="#EFEFED"/>
<path d="M970.985 107.105C957.207 107.105 949.707 97.1994 949.707 83.187C949.707 80.6845 949.928 78.174 950.378 75.4389C953.516 57.4402 965.496 45.826 980.275 45.826C994.612 45.826 1001.66 56.0766 1001.66 69.6318C1001.66 72.1343 1001.44 74.6448 1000.99 77.2596C997.751 95.7156 985.772 107.105 970.985 107.105ZM971.994 96.0605C980.283 96.0605 987.333 88.0878 989.462 76.6982C989.912 74.5326 990.133 72.4872 990.133 70.5462C990.133 62.2286 986.213 56.7664 979.273 56.7664C970.985 56.7664 964.045 64.8514 961.915 75.9041C961.466 78.2943 961.245 80.4599 961.245 82.393C961.245 91.272 965.614 96.0605 971.994 96.0605Z" fill="#EFEFED"/>
<path d="M933.051 105.397C930.472 106.191 927.791 106.536 925.212 106.536C913.114 106.536 901.916 98.218 901.916 82.5052C901.916 79.3129 902.365 75.896 903.375 72.1423C908.075 54.0312 921.742 46.628 933.721 46.628C937.862 46.628 941.781 47.5424 945.141 49.2508C947.941 50.6143 949.061 53.1249 949.061 55.2905C949.061 57.9133 947.491 60.1912 945.031 60.1912C944.25 60.1912 943.351 59.9666 942.452 59.3972C940.102 58.0336 937.412 57.3438 934.613 57.3438C926.774 57.3438 918.035 62.6937 915.015 74.3159C914.345 76.7061 914.116 78.8717 914.116 80.8048C914.116 90.7105 921.056 96.0684 928.453 96.0684C929.794 96.0684 931.143 95.8438 932.483 95.4989C933.043 95.3866 933.603 95.2743 934.053 95.2743C936.513 95.2743 937.751 97.0951 937.751 99.1484C937.751 101.635 936.182 104.37 933.051 105.397Z" fill="#EFEFED"/>
</g>
<defs>
<filter id="filter0_b_2017_160" x="-63.99" y="-51.0951" width="804.849" height="261.833" filterUnits="userSpaceOnUse" color-interpolation-filters="sRGB">
<feFlood flood-opacity="0" result="BackgroundImageFix"/>
<feGaussianBlur in="BackgroundImageFix" stdDeviation="37.892"/>
<feComposite in2="SourceAlpha" operator="in" result="effect1_backgroundBlur_2017_160"/>
<feBlend mode="normal" in="SourceGraphic" in2="effect1_backgroundBlur_2017_160" result="shape"/>
</filter>
<clipPath id="clip0_2017_160">
<rect width="597" height="154" fill="white" transform="translate(705 0.0910645)"/>
</clipPath>
</defs>
</svg>
