<svg width="314" height="82" viewBox="0 0 314 82" fill="none" xmlns="http://www.w3.org/2000/svg">
<path d="M49.1113 0.226038C44.8748 -0.512276 40.2774 0.810715 36.9745 4.65592L29.3066 13.5797C27.3937 15.8075 24.8253 17.331 21.9955 17.92L10.6471 20.2886C5.72597 21.3128 2.29863 24.791 0.817322 28.9734L15.0371 32.6692C26.1199 35.5499 31.6634 36.9881 36.0368 34.3933C40.4102 31.7943 41.9703 26.1396 45.0864 14.8259L49.1113 0.226038Z" fill="#EFEFED"/>
<path d="M79.4265 50.6447C80.1817 46.2575 78.9037 41.4819 75.1361 38.0592L66.4599 30.1725C64.294 28.205 62.8127 25.5633 62.2401 22.6528L59.9413 10.9806C58.9164 5.77395 55.3729 2.19334 51.1489 0.746582L47.5266 15.4958C44.7258 26.8949 43.3274 32.5965 45.8502 37.0947C48.3772 41.5929 53.875 43.1975 64.8749 46.4026L79.4265 50.6447Z" fill="#EFEFED"/>
<path d="M30.0662 81.6541C34.4271 82.5716 39.2362 81.2956 42.6594 77.3138L50.3232 68.39C52.236 66.1623 54.8044 64.6387 57.6343 64.0497L68.9827 61.6854C74.0075 60.6356 77.4763 57.0336 78.9037 52.7318L64.2192 48.9164C53.1364 46.0357 47.5929 44.5975 43.2195 47.1923C38.8461 49.7913 37.286 55.446 34.1698 66.7597L30.0662 81.6541Z" fill="#EFEFED"/>
<path d="M0.257059 31.0562C-0.597701 35.5116 0.655394 40.4152 4.49767 43.9062L13.1739 51.7887C15.3398 53.7561 16.8212 56.3978 17.3938 59.3084L19.6966 70.9806C20.6883 76.008 24.0285 79.5203 28.0575 81.0609L31.738 66.0855C34.5388 54.6865 35.9371 48.9848 33.4101 44.4866C30.8832 39.9885 25.3854 38.3838 14.3855 35.1788L0.257059 31.0562Z" fill="#EFEFED"/>
<path d="M299.735 56.9098C293.195 56.9098 290.249 53.7602 289.245 49.6376C289.187 49.3346 289.129 49.0316 289.129 48.7286C289.129 46.791 290.718 45.4552 292.253 45.4552C293.374 45.4552 294.432 46.121 294.847 47.7598C295.494 50.1839 297.025 51.8184 300.091 51.8184C303.037 51.8184 304.805 50.0004 304.805 47.8793C304.805 43.0312 293.316 41.8192 293.316 33.8215C293.316 28.7898 297.44 24.4282 304.158 24.4282C309.344 24.4282 312.643 26.9718 313.822 30.7914C313.938 31.1541 314 31.5169 314 31.8839C314 33.6422 312.643 34.914 311.17 34.914C310.228 34.914 309.166 34.308 308.577 32.7929C307.751 30.7316 306.22 29.3404 303.805 29.3404C301.332 29.3404 299.565 31.0389 299.565 33.16C299.565 38.2513 311.17 39.0366 311.17 47.1581C311.166 52.3049 307.1 56.9098 299.735 56.9098Z" fill="#EFEFED"/>
<path d="M274.706 56.9098C268.167 56.9098 265.221 53.7602 264.216 49.6376C264.158 49.3346 264.1 49.0316 264.1 48.7286C264.1 46.791 265.689 45.4552 267.225 45.4552C268.345 45.4552 269.403 46.121 269.818 47.7598C270.465 50.1839 271.996 51.8184 275.063 51.8184C278.009 51.8184 279.776 50.0004 279.776 47.8793C279.776 43.0312 268.287 41.8192 268.287 33.8215C268.287 28.7898 272.411 24.4282 279.129 24.4282C284.316 24.4282 287.614 26.9718 288.793 30.7914C288.909 31.1541 288.971 31.5169 288.971 31.8839C288.971 33.6422 287.614 34.914 286.141 34.914C285.2 34.914 284.137 34.308 283.548 32.7929C282.722 30.7316 281.191 29.3404 278.776 29.3404C276.303 29.3404 274.536 31.0389 274.536 33.16C274.536 38.2513 286.141 39.0366 286.141 47.1581C286.137 52.3049 282.071 56.9098 274.706 56.9098Z" fill="#EFEFED"/>
<path d="M261.81 24.6075C263.341 24.6075 264.698 25.636 264.698 27.5779C264.698 27.9406 264.64 28.3674 264.519 28.8496L257.922 54.362C257.511 55.9368 256.271 56.6666 254.976 56.6666C253.387 56.6666 251.852 55.574 251.852 53.6963C251.852 53.3932 251.852 53.0902 251.968 52.7275L252.499 50.6662C250.084 54.665 246.607 56.9098 242.541 56.9098C236.354 56.9098 233.524 51.5752 233.524 45.0925C233.524 43.5178 233.702 41.879 233.997 40.2444C235.765 31.2139 241.478 24.3685 249.08 24.3685C253.615 24.3685 256.623 27.5181 257.329 32.1272L258.623 27.1596C259.096 25.397 260.511 24.6075 261.81 24.6075ZM245.607 51.1527C250.026 51.1527 253.856 46.6076 254.976 40.7907C255.213 39.6384 255.329 38.5501 255.329 37.5174C255.329 33.0917 253.267 30.1854 249.731 30.1854C245.312 30.1854 241.541 34.547 240.362 40.4279C240.126 41.64 240.009 42.7922 240.009 43.8208C240.009 48.1226 241.951 51.1527 245.607 51.1527Z" fill="#EFEFED"/>
<path d="M222.209 24.4282C228.395 24.4282 231.225 29.7629 231.225 36.2455C231.225 37.8203 231.047 39.4591 230.752 41.0936C229.043 49.9406 223.387 56.9695 215.669 56.9695C211.192 56.9695 208.188 53.8797 207.421 49.3943L202.47 68.4241C202.06 69.9989 200.819 70.7286 199.524 70.7286C197.993 70.7286 196.462 69.6361 196.462 67.7583C196.462 67.4553 196.462 67.1523 196.578 66.7895L206.831 27.1553C207.304 25.397 208.715 24.5477 210.014 24.5477C211.545 24.5477 212.902 25.5762 212.902 27.5778C212.902 27.9406 212.844 28.3673 212.723 28.8496L212.25 30.6676C214.665 26.6688 218.142 24.4282 222.209 24.4282ZM224.387 40.9101C224.624 39.6981 224.74 38.6056 224.74 37.577C224.74 33.2154 222.736 30.2451 219.142 30.2451C214.723 30.2451 210.894 34.7305 209.773 40.5474C209.537 41.6997 209.421 42.7879 209.421 43.8207C209.421 48.2463 211.425 51.2124 214.96 51.2124C219.379 51.2124 223.209 46.8508 224.387 40.9101Z" fill="#EFEFED"/>
<path d="M192.242 24.3644C196.483 24.3644 199.665 27.0317 199.665 32.1828C199.665 33.3949 199.487 34.7264 199.134 36.1817L194.479 54.1786C194.006 55.9369 192.595 56.6624 191.296 56.6624C189.765 56.6624 188.35 55.6937 188.35 53.9951C188.35 53.6921 188.408 53.3891 188.466 53.0861L192.769 36.4804C193.006 35.5116 193.122 34.6624 193.122 33.9369C193.122 31.15 191.533 29.8783 189.47 29.8783C186.582 29.8783 184.641 32.0591 183.578 36.1219L178.865 54.1829C178.454 55.8174 177.097 56.6667 175.682 56.6667C174.209 56.6667 172.794 55.6979 172.794 53.9994C172.794 53.6964 172.852 53.3934 172.91 53.0904L177.213 36.4847C177.45 35.5159 177.566 34.6666 177.566 33.9411C177.566 31.1543 175.977 29.8825 173.852 29.8825C171.022 29.8825 169.139 32.1871 168.139 35.8232V35.7634L163.367 54.2469C162.956 55.8814 161.599 56.6112 160.363 56.6112C158.832 56.6112 157.301 55.5827 157.301 53.7006C157.301 53.3976 157.301 53.0946 157.417 52.7319L164.076 27.1597C164.55 25.3417 165.96 24.4924 167.375 24.4924C168.906 24.4924 170.263 25.5209 170.263 27.1597C170.263 27.4627 170.205 27.7657 170.147 28.0688L170.089 28.2523C171.74 25.7685 174.155 24.3729 177.159 24.3729C180.342 24.3729 183.051 26.0715 183.641 29.7076C185.528 26.3062 188.533 24.3644 192.242 24.3644Z" fill="#EFEFED"/>
<path d="M139.944 56.9697C132.695 56.9697 128.749 51.6991 128.749 44.2434C128.749 42.9119 128.866 41.5761 129.102 40.1208C130.754 30.544 137.056 24.3644 144.832 24.3644C152.376 24.3644 156.085 29.8185 156.085 37.031C156.085 38.3625 155.969 39.6983 155.732 41.0895C154.027 50.9096 147.724 56.9697 139.944 56.9697ZM140.475 51.0931C144.836 51.0931 148.546 46.851 149.666 40.7908C149.903 39.6385 150.019 38.5503 150.019 37.5175C150.019 33.0919 147.957 30.1855 144.305 30.1855C139.944 30.1855 136.293 34.4874 135.173 40.3683C134.936 41.6401 134.82 42.7924 134.82 43.8209C134.82 48.5452 137.119 51.0931 140.475 51.0931Z" fill="#EFEFED"/>
<path d="M119.986 56.0605C118.629 56.4831 117.218 56.6666 115.862 56.6666C109.497 56.6666 103.605 52.2409 103.605 43.8805C103.605 42.1819 103.841 40.3639 104.372 38.3666C106.845 28.7301 114.036 24.791 120.339 24.791C122.517 24.791 124.579 25.2775 126.347 26.1866C127.82 26.9121 128.409 28.2479 128.409 29.4001C128.409 30.7957 127.583 32.0077 126.289 32.0077C125.878 32.0077 125.405 31.8882 124.932 31.5852C123.696 30.8597 122.281 30.4927 120.808 30.4927C116.683 30.4927 112.086 33.3392 110.497 39.5232C110.144 40.7949 110.024 41.9472 110.024 42.9757C110.024 48.2464 113.675 51.0972 117.567 51.0972C118.272 51.0972 118.982 50.9777 119.687 50.7942C119.982 50.7344 120.277 50.6747 120.513 50.6747C121.808 50.6747 122.459 51.6435 122.459 52.736C122.459 54.059 121.633 55.5143 119.986 56.0605Z" fill="#EFEFED"/>
</svg>
