<svg width="70" height="69" viewBox="0 0 70 69" fill="none" xmlns="http://www.w3.org/2000/svg">
<path d="M54.7813 8.62476H50.3598C49.8588 6.16739 47.6812 4.31226 45.0781 4.31226C42.4751 4.31226 40.2974 6.16739 39.7965 8.62476H30.9535C29.74 2.92855 21.6093 2.91568 20.3902 8.62487C20.3902 8.62476 15.9688 8.62476 15.9688 8.62476C12.9965 8.62476 10.5781 11.0432 10.5781 14.0154V50.6716C10.5781 53.6438 12.9965 56.0623 15.9688 56.0623H30.2539C31.6708 56.0402 31.6621 53.9215 30.2539 53.906C30.2539 53.906 15.9688 53.906 15.9688 53.906C14.1852 53.906 12.7344 52.4552 12.7344 50.6716V14.0154C12.7344 12.2318 14.1852 10.781 15.9688 10.781H28.7076C28.2611 12.0332 27.0755 12.9373 25.6719 12.9373C25.076 12.9373 24.5938 13.42 24.5938 14.0154C24.5938 14.6108 25.076 15.0935 25.6719 15.0935C28.2749 15.0935 30.4526 13.2384 30.9535 10.781H48.1138C47.6674 12.0332 46.4818 12.9373 45.0781 12.9373C43.6541 12.9661 43.6659 15.0687 45.0782 15.0935C47.6812 15.0935 49.8588 13.2384 50.3598 10.781H54.7813C56.5648 10.781 58.0156 12.2318 58.0156 14.0154V17.2498H17.0469C15.6409 17.272 15.6201 19.3801 17.0469 19.406C17.0469 19.406 58.0156 19.406 58.0156 19.406V42.5536C58.0156 43.149 58.4979 43.6317 59.0938 43.6317C59.6897 43.6317 60.1719 43.149 60.1719 42.5536V14.0154C60.1719 11.0432 57.7535 8.62476 54.7813 8.62476ZM45.0781 6.46851C46.4818 6.46851 47.6674 7.37251 48.1138 8.62476H42.0424C42.4889 7.37251 43.6745 6.46851 45.0781 6.46851ZM25.6719 6.46851C27.0755 6.46851 28.2611 7.37251 28.7076 8.62476H22.6362C23.0826 7.37251 24.2682 6.46851 25.6719 6.46851Z" fill="#D9D9D9"/>
<path d="M59.8561 52.1741L57.0377 49.3553L56.7228 47.7853C56.4311 46.3192 55.7173 44.9852 54.6592 43.9281L50.7078 39.9762C48.6063 37.8737 45.1856 37.8758 43.0841 39.9762L40.035 43.0258L35.4614 38.4517C32.359 35.5831 27.9441 39.9027 30.8868 43.0259C30.8867 43.0258 35.4612 47.6001 35.4612 47.6001C33.3705 49.6063 33.3693 53.2168 35.4614 55.2232C37.8741 57.4139 40.0306 60.6995 43.2683 61.2387C43.2683 61.2387 44.8406 61.5528 44.8406 61.5528L47.6587 64.3715C48.0595 64.7883 48.7825 64.7898 49.1833 64.3714C49.1833 64.3715 59.8561 53.6987 59.8561 53.6987C60.2772 53.2775 60.2772 52.5952 59.8561 52.1741ZM48.421 62.0847L46.1342 59.7973C45.9697 59.6686 45.7816 59.5683 45.5835 59.5025C45.5835 59.5025 43.6916 59.1246 43.6916 59.1246C42.645 58.915 41.6922 58.4049 40.9373 57.65L36.9859 53.6987C35.7313 52.4942 35.7309 50.3288 36.9859 49.1246C36.9858 49.1246 39.2727 51.4113 39.2727 51.4113C40.2762 52.4044 41.7886 50.8871 40.7972 49.8867C38.9121 48.0019 34.3419 43.4317 32.4112 41.5013C31.4263 40.5071 32.9272 38.98 33.9369 39.9763C33.9368 39.9763 39.2727 45.3127 39.2727 45.3127C39.6939 45.7338 40.3761 45.7338 40.7972 45.3127L44.6086 41.5008C45.8689 40.2416 47.9209 40.2395 49.1832 41.5008L53.1346 45.4532C53.8906 46.2081 54.4002 47.1604 54.6086 48.208L54.8741 49.5329L48.421 55.986C47.4264 56.9836 48.9464 58.5049 49.9456 57.5105C49.9455 57.5105 56.0447 51.4113 56.0447 51.4113L57.5693 52.9364L48.421 62.0847Z" fill="#D9D9D9"/>
<path d="M25.6719 24.7966C25.6719 23.6074 24.7043 22.6404 23.5156 22.6404H19.2031C18.0144 22.6404 17.0469 23.6074 17.0469 24.7966V29.1091C17.0469 30.2983 18.0144 31.2654 19.2031 31.2654H23.5156C24.7043 31.2654 25.6719 30.2983 25.6719 29.1091V24.7966ZM19.2031 29.1091V24.7966H23.5156L23.5167 29.1091H19.2031Z" fill="#D9D9D9"/>
<path d="M37.5312 31.2654C38.7199 31.2654 39.6875 30.2983 39.6875 29.1091V24.7966C39.6875 23.6074 38.7199 22.6404 37.5312 22.6404H33.2188C32.0301 22.6404 31.0625 23.6074 31.0625 24.7966V29.1091C31.0625 30.2983 32.0301 31.2654 33.2188 31.2654H37.5312ZM33.2188 24.7966H37.5312L37.5323 29.1091H33.2188V24.7966Z" fill="#D9D9D9"/>
<path d="M51.5469 31.2654C52.7356 31.2654 53.7031 30.2983 53.7031 29.1091V24.7966C53.7031 23.6074 52.7356 22.6404 51.5469 22.6404H47.2344C46.0457 22.6404 45.0781 23.6074 45.0781 24.7966V29.1091C45.0781 30.2983 46.0457 31.2654 47.2344 31.2654H51.5469ZM47.2344 24.7966H51.5469L51.5479 29.1091H47.2344V24.7966Z" fill="#D9D9D9"/>
<path d="M21.3594 43.1248C21.9553 43.1248 22.4375 42.642 22.4375 42.0466V39.8904H24.5938C25.1897 39.8904 25.6719 39.4077 25.6719 38.8123C25.6719 38.2169 25.1897 37.7341 24.5938 37.7341H22.4375V35.5779C22.4375 34.9825 21.9553 34.4998 21.3594 34.4998C20.7635 34.4998 20.2812 34.9825 20.2812 35.5779V37.7341H18.125C17.5291 37.7341 17.0469 38.2169 17.0469 38.8123C17.0469 39.4077 17.5291 39.8904 18.125 39.8904H20.2812V42.0466C20.2812 42.642 20.7635 43.1248 21.3594 43.1248Z" fill="#D9D9D9"/>
</svg>
