<svg width="68" height="69" viewBox="0 0 68 69" fill="none" xmlns="http://www.w3.org/2000/svg">
<path d="M37.7552 43.9398H37.7591C37.9976 43.941 38.2259 44.0399 38.3939 44.2147C38.5618 44.3895 38.6557 44.6258 38.6549 44.8719C38.6545 44.9781 38.6743 45.0834 38.7133 45.1816C38.7523 45.2799 38.8097 45.3693 38.8821 45.4447C38.9546 45.5201 39.0408 45.58 39.1357 45.6211C39.2306 45.6621 39.3324 45.6835 39.4353 45.6839H39.4387C39.646 45.6839 39.8448 45.5992 39.9917 45.4483C40.1386 45.2974 40.2216 45.0927 40.2225 44.8788C40.2239 44.3457 40.0632 43.8256 39.763 43.3916C39.4628 42.9577 39.0383 42.6318 38.5492 42.4599L38.5504 42.1801C38.5508 42.0739 38.531 41.9687 38.492 41.8704C38.453 41.7722 38.3956 41.6828 38.3232 41.6074C38.2507 41.532 38.1645 41.472 38.0696 41.431C37.9747 41.39 37.8729 41.3686 37.77 41.3682H37.7666C37.5593 41.3682 37.3605 41.4529 37.2136 41.6038C37.0667 41.7546 36.9837 41.9594 36.9828 42.1733L36.9817 42.4528C36.4259 42.6422 35.9536 43.0293 35.6491 43.545C35.3446 44.0607 35.2277 44.6714 35.3195 45.2678C35.4113 45.8642 35.7056 46.4075 36.1499 46.8005C36.5943 47.1936 37.1596 47.4108 37.7449 47.4133C37.9834 47.4125 38.2125 47.5094 38.3818 47.6828C38.5511 47.8562 38.6467 48.0918 38.6476 48.338C38.6484 48.5841 38.5545 48.8205 38.3864 48.9951C38.2184 49.1698 37.99 49.2684 37.7514 49.2693C37.7466 49.2693 37.742 49.2685 37.7372 49.2685C37.7323 49.2685 37.7278 49.2685 37.7231 49.2685C37.487 49.2639 37.2621 49.1636 37.0971 48.9894C36.9322 48.8151 36.8403 48.5808 36.8414 48.3372C36.8418 48.231 36.822 48.1257 36.783 48.0275C36.7441 47.9292 36.6867 47.8398 36.6142 47.7644C36.5418 47.689 36.4556 47.629 36.3607 47.588C36.2658 47.5469 36.164 47.5255 36.0611 47.5251H36.0577C35.8504 47.5251 35.6515 47.6098 35.5047 47.7607C35.3578 47.9116 35.2748 48.1164 35.274 48.3303C35.2714 48.8638 35.4316 49.3846 35.732 49.8189C36.0323 50.2531 36.4575 50.5789 36.9473 50.7499L36.9459 51.1077C36.9454 51.2139 36.9651 51.3192 37.0041 51.4176C37.043 51.5159 37.1004 51.6054 37.1729 51.6809C37.2454 51.7563 37.3315 51.8163 37.4265 51.8574C37.5215 51.8985 37.6234 51.9199 37.7263 51.9203H37.7296C37.9369 51.9203 38.1357 51.8356 38.2826 51.6847C38.4295 51.5338 38.5124 51.329 38.5133 51.1151L38.5147 50.7576C39.0707 50.5683 39.5434 50.1811 39.8481 49.6653C40.1528 49.1495 40.2697 48.5386 40.1779 47.942C40.0861 47.3454 39.7917 46.8019 39.3471 46.4088C38.9026 46.0157 38.337 45.7985 37.7515 45.7962C37.5148 45.7927 37.2889 45.6932 37.1228 45.5191C36.9568 45.3449 36.8639 45.1103 36.8644 44.866C36.8649 44.6217 36.9587 44.3875 37.1255 44.2141C37.2923 44.0407 37.5184 43.9421 37.7552 43.9398Z" fill="#D9D9D9"/>
<path d="M53.7652 32.3962L52.1494 32.389H52.1467C51.9388 32.3886 51.7393 32.4734 51.592 32.6247C51.4447 32.776 51.3618 32.9815 51.3613 33.1959C51.3609 33.4104 51.443 33.6162 51.5897 33.7682C51.7364 33.9202 51.9356 34.0058 52.1434 34.0062L53.759 34.0134H53.7624C53.9703 34.0138 54.1698 33.9291 54.3171 33.7777C54.4644 33.6264 54.5473 33.4209 54.5478 33.2065C54.5482 32.992 54.4661 32.7862 54.3194 32.6342C54.1727 32.4822 53.9736 32.3966 53.7657 32.3962H53.7652Z" fill="#D9D9D9"/>
<path d="M35.8678 33.9596L49.3529 33.994H49.3548C49.5627 33.9942 49.7621 33.9093 49.9093 33.7578C50.0564 33.6063 50.1392 33.4008 50.1394 33.1863C50.1397 32.9719 50.0574 32.7661 49.9106 32.6143C49.7637 32.4625 49.5645 32.377 49.3567 32.3768L35.8715 32.3424H35.8696C35.6617 32.3422 35.4623 32.4271 35.3152 32.5786C35.168 32.73 35.0852 32.9356 35.085 33.1501C35.0847 33.3645 35.1671 33.5703 35.3139 33.7221C35.4607 33.8739 35.6599 33.9593 35.8678 33.9596Z" fill="#D9D9D9"/>
<path d="M53.7827 28.1549L52.1669 28.1477H52.1635C51.9557 28.1473 51.7562 28.232 51.6089 28.3833C51.4616 28.5347 51.3786 28.7402 51.3782 28.9546C51.3777 29.1691 51.4599 29.3749 51.6066 29.5269C51.7532 29.6788 51.9524 29.7644 52.1603 29.7649L53.776 29.772H53.7794C53.9873 29.7725 54.1868 29.6877 54.3341 29.5364C54.4813 29.3851 54.5643 29.1796 54.5648 28.9651C54.5652 28.7507 54.483 28.5448 54.3364 28.3929C54.1897 28.2409 53.9905 28.1553 53.7827 28.1549Z" fill="#D9D9D9"/>
<path d="M35.8846 29.7184L49.3697 29.7526H49.3717C49.5795 29.7529 49.779 29.6679 49.9261 29.5164C50.0733 29.365 50.1561 29.1594 50.1563 28.945C50.1565 28.7305 50.0742 28.5247 49.9274 28.3729C49.7806 28.2211 49.5814 28.1357 49.3735 28.1354L35.8885 28.1012H35.8864C35.6786 28.1009 35.4791 28.1859 35.332 28.3374C35.1849 28.4888 35.102 28.6944 35.1018 28.9088C35.1016 29.1233 35.1839 29.3291 35.3307 29.4809C35.4775 29.6327 35.6768 29.7181 35.8846 29.7184Z" fill="#D9D9D9"/>
<path d="M53.7476 36.6374L52.1319 36.6304H52.1285C51.9206 36.6299 51.7211 36.7147 51.5738 36.866C51.4266 37.0173 51.3436 37.2228 51.3431 37.4373C51.3427 37.6517 51.4249 37.8576 51.5715 38.0095C51.7182 38.1615 51.9174 38.2471 52.1252 38.2476L53.741 38.2546H53.7444C53.9522 38.255 54.1517 38.1703 54.299 38.0189C54.4463 37.8676 54.5293 37.6621 54.5297 37.4477C54.5302 37.2332 54.448 37.0274 54.3013 36.8754C54.1547 36.7234 53.9555 36.6378 53.7476 36.6374Z" fill="#D9D9D9"/>
<path d="M35.8502 38.2009L49.3352 38.2353H49.3372C49.5451 38.2355 49.7445 38.1506 49.8917 37.9991C50.0388 37.8477 50.1216 37.6421 50.1219 37.4276C50.1221 37.2132 50.0398 37.0074 49.893 36.8556C49.7462 36.7038 49.5469 36.6184 49.3391 36.6181L35.854 36.5837H35.852C35.6442 36.5835 35.4447 36.6684 35.2976 36.8199C35.1504 36.9714 35.0676 37.1769 35.0674 37.3914C35.0671 37.6058 35.1495 37.8116 35.2963 37.9634C35.4431 38.1152 35.6423 38.2007 35.8502 38.2009Z" fill="#D9D9D9"/>
<path d="M50.9026 49.8188L42.5942 49.8073H42.5931C42.3853 49.8071 42.1859 49.8921 42.0388 50.0437C41.8917 50.1952 41.809 50.4008 41.8088 50.6152C41.8087 50.8297 41.8911 51.0354 42.038 51.1872C42.1848 51.3389 42.3841 51.4243 42.592 51.4244L50.9004 51.436H50.9016C51.1094 51.4362 51.3088 51.3511 51.4559 51.1996C51.603 51.048 51.6857 50.8424 51.6858 50.628C51.6859 50.4135 51.6035 50.2078 51.4566 50.0561C51.3097 49.9043 51.1105 49.819 50.9026 49.8188Z" fill="#D9D9D9"/>
<path d="M53.503 49.8303L53.1815 49.8289H53.1785C52.9707 49.8284 52.7712 49.9132 52.6239 50.0645C52.4766 50.2158 52.3936 50.4213 52.3932 50.6358C52.3928 50.8502 52.4749 51.0561 52.6216 51.208C52.7682 51.36 52.9674 51.4456 53.1753 51.446L53.4966 51.4475H53.5001C53.603 51.4478 53.705 51.4271 53.8002 51.3867C53.8953 51.3462 53.9819 51.2869 54.0548 51.2119C54.1277 51.137 54.1856 51.048 54.2252 50.95C54.2648 50.852 54.2853 50.7469 54.2855 50.6407C54.2858 50.5345 54.2657 50.4293 54.2265 50.3311C54.1873 50.2329 54.1298 50.1437 54.0572 50.0684C53.9846 49.9932 53.8983 49.9334 53.8033 49.8926C53.7083 49.8517 53.6064 49.8306 53.5035 49.8303H53.503Z" fill="#D9D9D9"/>
<path d="M42.6176 45.4142C42.4105 45.4087 42.2097 45.488 42.0592 45.6347C41.9086 45.7815 41.8204 45.9837 41.814 46.1973C41.8075 46.4109 41.8833 46.6185 42.0247 46.7746C42.1661 46.9308 42.3617 47.0228 42.5687 47.0306L42.9283 47.0422H42.9533C43.0562 47.0438 43.1584 47.0245 43.2541 46.9853C43.3498 46.9462 43.437 46.888 43.5109 46.8141C43.5848 46.7401 43.6439 46.6519 43.6847 46.5544C43.7255 46.4569 43.7474 46.3521 43.7489 46.2459C43.7505 46.1397 43.7318 46.0343 43.6938 45.9355C43.6559 45.8368 43.5995 45.7468 43.5278 45.6705C43.4562 45.5943 43.3706 45.5334 43.2762 45.4913C43.1817 45.4491 43.0801 45.4266 42.9772 45.425L42.6176 45.4142Z" fill="#D9D9D9"/>
<path d="M53.4995 45.4368L45.2294 45.4354C45.0215 45.4354 44.8222 45.5206 44.6752 45.6723C44.5282 45.8239 44.4457 46.0296 44.4457 46.244C44.4457 46.4585 44.5282 46.6641 44.6752 46.8158C44.8222 46.9674 45.0215 47.0526 45.2294 47.0526L53.4995 47.054C53.7074 47.054 53.9067 46.9688 54.0537 46.8171C54.2007 46.6655 54.2832 46.4598 54.2832 46.2454C54.2832 46.0309 54.2007 45.8252 54.0537 45.6736C53.9067 45.522 53.7074 45.4368 53.4995 45.4368Z" fill="#D9D9D9"/>
<path d="M60.8074 24.233H60.7888L40.1126 24.1632V14.4842C40.111 13.0418 39.5549 11.659 38.5664 10.639C37.5778 9.6191 36.2375 9.04538 34.8395 9.04374H29.5626V7.54663C29.5626 7.33218 29.4801 7.12651 29.3331 6.97487C29.1861 6.82323 28.9868 6.73804 28.7789 6.73804H14.2524C14.0445 6.73804 13.8452 6.82323 13.6982 6.97487C13.5512 7.12651 13.4687 7.33218 13.4687 7.54663V9.04374H8.19167C6.79365 9.04538 5.45334 9.6191 4.46479 10.639C3.47624 11.659 2.92017 13.0418 2.91858 14.4842V51.3589C2.92017 52.8013 3.47624 54.1842 4.46479 55.2041C5.45334 56.2241 6.79365 56.7978 8.19167 56.7994H26.6655V57.0595C26.667 58.4387 27.1987 59.7609 28.1439 60.7361C29.0891 61.7113 30.3707 62.2599 31.7074 62.2615H52.2276C53.6417 62.2589 54.9973 61.6794 55.9988 60.6495C57.0003 59.6195 57.5664 58.2228 57.5735 56.7638L57.6346 37.536L64.6489 37.6822C64.7528 37.6844 64.8561 37.6652 64.9528 37.6258C65.0495 37.5863 65.1376 37.5274 65.212 37.4525C65.2864 37.3776 65.3456 37.2882 65.3862 37.1894C65.4268 37.0907 65.4479 36.9846 65.4484 36.8773L65.4805 29.0959C65.4844 27.8121 64.9945 26.5792 64.1185 25.6676C63.2424 24.7559 62.0516 24.24 60.8074 24.233ZM15.0361 8.35522H27.9952V12.5013H15.0361V8.35522ZM27.4492 53.4284C27.2414 53.4284 27.042 53.5136 26.8951 53.6652C26.7481 53.8169 26.6655 54.0225 26.6655 54.237V55.1828H8.19167C7.20918 55.1817 6.26724 54.7786 5.57252 54.0618C4.87779 53.345 4.48704 52.3731 4.48601 51.3595V14.4842C4.48704 13.4706 4.87779 12.4987 5.57252 11.7819C6.26724 11.0652 7.20918 10.662 8.19167 10.6609H13.4687V13.3099C13.4687 13.5243 13.5512 13.73 13.6982 13.8816C13.8452 14.0333 14.0445 14.1185 14.2524 14.1185H28.7789C28.9868 14.1185 29.1861 14.0333 29.3331 13.8816C29.4801 13.73 29.5626 13.5243 29.5626 13.3099V10.6609H34.8396C35.8221 10.662 36.7641 11.0652 37.4588 11.7819C38.1535 12.4987 38.5443 13.4706 38.5453 14.4842V24.1585L36.951 24.1533H36.9305C35.694 24.1534 34.5079 24.6589 33.6318 25.5592C32.7557 26.4594 32.2609 27.6811 32.2557 28.9568L32.1685 53.4284H27.4492ZM31.7075 60.6443C30.7864 60.6432 29.9033 60.2651 29.2519 59.5931C28.6005 58.9211 28.2341 58.0099 28.2331 57.0595V55.0456H46.8817V56.7458C46.8812 57.4701 47.0195 58.1873 47.2885 58.8563C47.5575 59.5254 47.9519 60.133 48.4491 60.6443H31.7075ZM56.0702 36.5978C56.0659 36.6299 56.0634 36.6622 56.0628 36.6945C56.062 36.7362 56.0642 36.7778 56.0695 36.8191L56.0062 56.7586C56.0045 57.7925 55.6049 58.7835 54.8951 59.5134C54.1853 60.2433 53.2236 60.6524 52.2214 60.6507C51.2193 60.649 50.2589 60.2366 49.5514 59.5043C48.844 58.772 48.4475 57.7797 48.4491 56.7458V54.237C48.4491 54.0225 48.3665 53.8169 48.2196 53.6652C48.0726 53.5136 47.8732 53.4284 47.6654 53.4284H33.7358L33.823 28.9633C33.8265 28.1151 34.1556 27.3029 34.7383 26.7045C35.3209 26.106 36.1096 25.7702 36.9318 25.7704H36.9448L57.3005 25.8386C56.5278 26.7209 56.0981 27.8665 56.0941 29.0556L56.0702 36.5978ZM63.8845 36.0487L57.6398 35.9186L57.6617 29.0616C57.6661 28.2089 57.9972 27.3928 58.5828 26.7911C59.1684 26.1895 59.9608 25.8512 60.7872 25.8502H60.8003C61.6291 25.8548 62.4222 26.1984 63.0057 26.8056C63.5892 27.4129 63.9155 28.2341 63.9128 29.0892L63.8845 36.0487Z" fill="#D9D9D9"/>
<path d="M29.6979 24.8654L21.8607 20.8978C21.7534 20.8435 21.6354 20.8153 21.5159 20.8153C21.3964 20.8153 21.2784 20.8435 21.1711 20.8978L13.3339 24.8541C13.2022 24.9206 13.0912 25.0239 13.0135 25.1523C12.9358 25.2807 12.8947 25.429 12.8947 25.5804V33.1496C12.9183 34.1284 13.1458 35.0906 13.5617 35.9706C14.1189 37.2081 14.9531 38.2793 15.85 38.9096L21.0748 42.5824C21.2049 42.6738 21.3587 42.7228 21.5161 42.7228C21.6735 42.7228 21.8273 42.6738 21.9574 42.5824L27.1822 38.9097C28.8392 37.7454 30.1371 35.215 30.1371 33.1492V25.5918C30.1372 25.4404 30.096 25.2921 30.0183 25.1637C29.9407 25.0353 29.8296 24.9319 29.6979 24.8654ZM28.5689 33.1492C28.5689 34.6824 27.5295 36.7085 26.2989 37.5731L21.5155 40.9358L16.732 37.5731C16.0716 37.109 15.4176 36.2553 14.9825 35.2891C14.6651 34.6215 14.4878 33.8923 14.4621 33.1492V26.0846L21.5155 22.5243L28.5689 26.0956V33.1492Z" fill="#D9D9D9"/>
<path d="M18.7466 30.9538C18.6731 30.879 18.5859 30.8199 18.4902 30.78C18.3944 30.74 18.292 30.72 18.1887 30.721C18.0854 30.7221 17.9834 30.7442 17.8884 30.786C17.7934 30.8279 17.7074 30.8887 17.6353 30.965C17.5632 31.0413 17.5064 31.1315 17.4682 31.2305C17.43 31.3295 17.4111 31.4353 17.4127 31.5418C17.4143 31.6484 17.4362 31.7536 17.4773 31.8513C17.5184 31.9491 17.5778 32.0375 17.6521 32.1115L20.0195 34.4937C20.1658 34.641 20.3622 34.7235 20.5667 34.7235C20.7712 34.7235 20.9676 34.641 21.1139 34.4937L25.3789 30.2019C25.454 30.1281 25.5142 30.0396 25.556 29.9417C25.5977 29.8437 25.6202 29.7381 25.6221 29.6311C25.624 29.5242 25.6053 29.4178 25.5671 29.3183C25.5289 29.2188 25.4719 29.1282 25.3995 29.0516C25.3271 28.975 25.2406 28.914 25.1452 28.8721C25.0497 28.8302 24.9472 28.8083 24.8434 28.8076C24.7397 28.807 24.6369 28.8275 24.5409 28.8682C24.445 28.9088 24.3578 28.9687 24.2844 29.0443L20.5666 32.7854L18.7466 30.9538Z" fill="#D9D9D9"/>
</svg>
