<svg width="24" height="24" viewBox="0 0 24 24" fill="none" xmlns="http://www.w3.org/2000/svg">
    <g clip-path="url(#clip0_104_880)">
        <path d="M20.3857 5.5896C21.5963 6.03802 22.4614 7.20404 22.4614 8.56854C22.4614 10.0729 21.4097 11.3364 20.0029 11.6625V12.7217C20.0029 13.0001 19.8417 13.2533 19.5896 13.3712C19.4927 13.4166 19.3889 13.4388 19.2858 13.4388C19.1208 13.4388 18.9575 13.382 18.826 13.2722L16.9966 11.7441H13.9289C12.6878 11.7441 11.6113 11.028 11.0893 9.98779H14.8274C17.5247 9.98761 19.791 8.10785 20.3857 5.5896Z" fill="white"/>
        <path d="M7.07123 0H14.8274C17.1856 0 19.104 1.91858 19.104 4.27679C19.104 6.63501 17.1856 8.55341 14.8274 8.55341H10.2692L7.53082 10.8406C7.39935 10.9504 7.23602 11.0072 7.07104 11.0072C6.96796 11.0072 6.86432 10.985 6.76727 10.9396C6.51514 10.8217 6.354 10.5685 6.354 10.2902V8.49335C4.336 8.15131 2.79443 6.39075 2.79443 4.27679C2.79443 1.91858 4.71301 0 7.07123 0Z" fill="white"/>
        <path d="M15.4946 20.9474C15.95 20.1789 16.617 19.5723 17.3952 19.1832C16.5013 18.1301 16.5504 16.545 17.5441 15.5515C18.5902 14.5052 20.2923 14.5054 21.3384 15.5515C21.8452 16.0581 22.1243 16.732 22.1243 17.4486C22.1243 18.0913 21.8992 18.6992 21.4874 19.1834C22.2655 19.5723 22.9325 20.1791 23.3879 20.9474C23.7611 21.5767 23.7667 22.3335 23.4033 22.9716C23.0363 23.6154 22.3757 24 21.6359 24H17.2465C16.5068 24 15.846 23.6154 15.4792 22.9716C15.1157 22.3335 15.1214 21.5767 15.4946 20.9474Z" fill="white"/>
        <path d="M0.643224 20.3944C1.25351 19.3648 2.17087 18.5695 3.23728 18.0975C2.62644 17.4865 2.28989 16.6742 2.28989 15.8101C2.28989 14.9461 2.62644 14.1336 3.23746 13.5224C4.49906 12.261 6.55149 12.2612 7.8129 13.5224C8.42392 14.1336 8.76047 14.9459 8.76047 15.8101C8.76047 16.6742 8.42392 17.4866 7.81308 18.0975C8.87949 18.5695 9.79685 19.3648 10.4071 20.3944C10.8477 21.1374 10.8543 22.031 10.4249 22.7846C9.99131 23.5458 9.21055 24.0001 8.3364 24.0001H2.71396C1.83982 24.0001 1.05906 23.5458 0.625279 22.7846C0.19608 22.031 0.202672 21.1374 0.643224 20.3944Z" fill="white"/>
    </g>
    <defs>
        <clipPath id="clip0_104_880">
            <rect width="24" height="24" fill="white" transform="matrix(-1 0 0 1 24 0)"/>
        </clipPath>
    </defs>
</svg>