<svg width="22" height="22" viewBox="0 0 22 22" fill="none" xmlns="http://www.w3.org/2000/svg">
    <g clip-path="url(#clip0_104_859)">
        <path d="M21.0309 7.62275C21.073 7.62275 21.1118 7.61627 21.1506 7.6001V19.7451C21.1506 20.4766 20.5553 21.0686 19.8274 21.0686H2.17888C1.44447 21.0686 0.849184 20.4766 0.849184 19.7451V7.6001C0.888004 7.61627 0.930065 7.62275 0.972126 7.62275H21.0309ZM16.2841 19.0035C16.2841 19.241 16.4763 19.4332 16.7138 19.4332H18.4142C18.6517 19.4332 18.8439 19.241 18.8439 19.0035V17.3027C18.8439 17.0656 18.6517 16.8731 18.4142 16.8731H16.7138C16.4763 16.8731 16.2841 17.0656 16.2841 17.3027V19.0035ZM16.2841 15.0478C16.2841 15.2852 16.4763 15.4774 16.7138 15.4774H18.4142C18.6517 15.4774 18.8439 15.2852 18.8439 15.0478V13.347C18.8439 13.1098 18.6517 12.9176 18.4142 12.9176H16.7138C16.4763 12.9176 16.2841 13.1098 16.2841 13.347V15.0478ZM16.2841 11.092C16.2841 11.3294 16.4763 11.5216 16.7138 11.5216H18.4142C18.6517 11.5216 18.8439 11.3294 18.8439 11.092V9.39116C18.8439 9.15402 18.6517 8.96151 18.4142 8.96151H16.7138C16.4763 8.96151 16.2841 9.15402 16.2841 9.39116V11.092ZM11.338 19.0035C11.338 19.241 11.5305 19.4332 11.7676 19.4332H13.4685C13.7059 19.4332 13.8981 19.241 13.8981 19.0035V17.3027C13.8981 17.0656 13.7059 16.8731 13.4685 16.8731H11.7676C11.5305 16.8731 11.338 17.0656 11.338 17.3027V19.0035ZM11.3377 15.0478C11.3377 15.2852 11.5302 15.4774 11.7673 15.4774H13.4681C13.7056 15.4774 13.8977 15.2852 13.8977 15.0478V13.347C13.8977 13.1098 13.7056 12.9176 13.4681 12.9176H11.7673C11.5302 12.9176 11.3377 13.1098 11.3377 13.347V15.0478ZM11.3377 11.092C11.3377 11.3294 11.5302 11.5216 11.7673 11.5216H13.4681C13.7056 11.5216 13.8977 11.3294 13.8977 11.092V9.39116C13.8977 9.15402 13.7056 8.96151 13.4681 8.96151H11.7673C11.5302 8.96151 11.3377 9.15402 11.3377 9.39116V11.092ZM2.73436 15.2875H5.21908V17.7722H7.21654V15.2875H9.70126V13.29H7.21654V10.8053H5.21908V13.29H2.73436V15.2875Z" fill="white"/>
        <path d="M2.17887 3.35522H3.20447V4.70436C3.20447 5.38376 3.75769 5.94024 4.44037 5.94024C5.11978 5.94024 5.67624 5.38376 5.67624 4.70436V3.35522H9.76565V4.70436C9.76565 5.38376 10.3189 5.94024 11.0015 5.94024C11.681 5.94024 12.2374 5.38376 12.2374 4.70436V3.35522H16.3268V4.70436C16.3268 5.38376 16.8801 5.94024 17.5627 5.94024C18.2421 5.94024 18.7986 5.38376 18.7986 4.70436V3.35522H19.8274C20.5554 3.35522 21.1506 3.95055 21.1506 4.68497V7.25701C21.1506 7.32494 21.0956 7.37993 21.0309 7.37993H0.972107C0.904179 7.37993 0.849163 7.32494 0.849163 7.25701V4.68497C0.849163 3.95055 1.44449 3.35522 2.17887 3.35522Z" fill="white"/>
        <path d="M17.5612 5.69696C17.0112 5.69696 16.568 5.25051 16.568 4.70376V1.92461C16.568 1.64962 16.678 1.40374 16.8592 1.22258C17.0371 1.04139 17.2862 0.931396 17.5612 0.931396C18.108 0.931396 18.5544 1.37787 18.5544 1.92461V4.70376C18.5544 5.25051 18.108 5.69696 17.5612 5.69696Z" fill="white"/>
        <path d="M11.0002 5.69696C10.4502 5.69696 10.0069 5.25051 10.0069 4.70376V1.92461C10.0069 1.64962 10.1169 1.40374 10.2981 1.22258C10.476 1.04139 10.7252 0.931396 11.0002 0.931396C11.5469 0.931396 11.9934 1.37787 11.9934 1.92461V4.70376C11.9934 5.25051 11.5469 5.69696 11.0002 5.69696Z" fill="white"/>
        <path d="M4.43887 5.69696C3.88889 5.69696 3.44565 5.25051 3.44565 4.70376V1.92461C3.44565 1.64962 3.556 1.40374 3.73684 1.22258C3.91476 1.04139 4.16388 0.931396 4.43887 0.931396C4.98566 0.931396 5.43213 1.37787 5.43213 1.92461V4.70376C5.43213 5.25051 4.98566 5.69696 4.43887 5.69696Z" fill="white"/>
    </g>
    <defs>
        <clipPath id="clip0_104_859">
            <rect width="22" height="22" fill="white" transform="matrix(-1 0 0 1 22 0)"/>
        </clipPath>
    </defs>
</svg>