<svg width="22" height="22" viewBox="0 0 22 22" fill="none" xmlns="http://www.w3.org/2000/svg">
    <path fill-rule="evenodd" clip-rule="evenodd" d="M8.02075 10.0833V11.9167C8.02075 13.3091 6.89234 14.4375 5.49992 14.4375H3.66658C2.27417 14.4375 1.14575 13.3091 1.14575 11.9167V10.0833C1.14575 8.69092 2.27417 7.5625 3.66658 7.5625H5.49992C6.89234 7.5625 8.02075 8.69092 8.02075 10.0833Z" fill="white"/>
    <path fill-rule="evenodd" clip-rule="evenodd" d="M20.8541 3.66659V5.49992C20.8541 6.89234 19.7257 8.02075 18.3333 8.02075H16.5C15.1075 8.02075 13.9791 6.89234 13.9791 5.49992V3.66659C13.9791 2.27417 15.1075 1.14575 16.5 1.14575H18.3333C19.7257 1.14575 20.8541 2.27417 20.8541 3.66659Z" fill="white"/>
    <path fill-rule="evenodd" clip-rule="evenodd" d="M20.8541 16.4998V18.3332C20.8541 19.7256 19.7257 20.854 18.3333 20.854H16.5C15.1075 20.854 13.9791 19.7256 13.9791 18.3332V16.4998C13.9791 15.1074 15.1075 13.979 16.5 13.979H18.3333C19.7257 13.979 20.8541 15.1074 20.8541 16.4998Z" fill="white"/>
    <path fill-rule="evenodd" clip-rule="evenodd" d="M17.4524 15.3533L17.4166 15.3542L17.3873 15.3505C17.2553 15.3322 16.7291 15.2203 16.7291 14.6548V13.75C16.7291 13.2028 16.5119 12.6784 16.125 12.2916C15.7382 11.9048 15.2139 11.6875 14.6666 11.6875H7.33329C6.95379 11.6875 6.64579 11.3795 6.64579 11C6.64579 10.6205 6.95379 10.3125 7.33329 10.3125H14.6666C15.5787 10.3125 16.4523 10.6746 17.0976 11.319C17.742 11.9643 18.1041 12.8379 18.1041 13.75V14.6548V14.6603V14.6667C18.1041 14.7143 18.0995 14.7611 18.0895 14.806C18.0711 14.9041 18.0345 14.9848 17.9868 15.0508C17.8695 15.2249 17.6742 15.3423 17.4524 15.3533Z" fill="white"/>
    <path fill-rule="evenodd" clip-rule="evenodd" d="M4.61904 8.9365L4.58329 8.93742L4.55396 8.93375C4.42196 8.91542 3.89579 8.80359 3.89579 8.238C3.89579 8.17017 3.89579 7.80717 3.89579 7.33325C3.89579 6.42117 4.25787 5.54759 4.90229 4.90225C5.54762 4.25784 6.42121 3.89575 7.33329 3.89575H14.6666C15.0461 3.89575 15.3541 4.20375 15.3541 4.58325C15.3541 4.96275 15.0461 5.27075 14.6666 5.27075H7.33329C6.78604 5.27075 6.26171 5.488 5.87488 5.87484C5.48804 6.26167 5.27079 6.786 5.27079 7.33325V8.238V8.2435V8.24992C5.27079 8.29759 5.26621 8.34434 5.25612 8.38925C5.23779 8.48734 5.20113 8.568 5.15346 8.634C5.03613 8.80817 4.84087 8.9255 4.61904 8.9365Z" fill="white"/>
    <path fill-rule="evenodd" clip-rule="evenodd" d="M14.6666 18.1041H8.24996C7.97221 18.1041 7.72104 17.9364 7.61471 17.6797C7.50838 17.423 7.56704 17.1269 7.76413 16.9308L9.59746 15.0974C9.86513 14.8289 10.3015 14.8289 10.5691 15.0974C10.8377 15.3651 10.8377 15.8014 10.5691 16.0691L9.91004 16.7291H14.6666C15.0461 16.7291 15.3541 17.0371 15.3541 17.4166C15.3541 17.7961 15.0461 18.1041 14.6666 18.1041Z" fill="white"/>
    <path fill-rule="evenodd" clip-rule="evenodd" d="M8.73574 16.9307L10.5691 18.764C10.8377 19.0317 10.8377 19.468 10.5691 19.7357C10.3014 20.0043 9.86507 20.0043 9.5974 19.7357L7.76407 17.9024C7.49549 17.6347 7.49549 17.1984 7.76407 16.9307C8.03174 16.6621 8.46807 16.6621 8.73574 16.9307Z" fill="white"/>
</svg>