<svg width="49" height="49" viewBox="0 0 49 49" fill="none" xmlns="http://www.w3.org/2000/svg">
<path fill-rule="evenodd" clip-rule="evenodd" d="M42.0732 21.8262C42.0754 21.7077 42.0765 21.5889 42.0765 21.47C42.0765 11.2185 33.7537 2.89565 23.5022 2.89565C13.2508 2.89565 4.92788 11.2185 4.92788 21.47C4.92788 31.2342 12.4782 39.2491 22.0541 39.9885C22.4684 40.0205 22.7788 40.3829 22.7468 40.7972C22.7148 41.2116 22.3524 41.522 21.9381 41.49C11.5855 40.6905 3.422 32.0262 3.422 21.47C3.422 10.3874 12.4196 1.38977 23.5022 1.38977C34.5847 1.38977 43.5824 10.3874 43.5824 21.47C43.5824 21.5677 43.5817 21.6654 43.5803 21.7629L44.5248 20.7402C44.8067 20.4349 45.2834 20.4158 45.5887 20.6977C45.894 20.9797 45.913 21.4564 45.6311 21.7617L43.3707 24.2095C43.2296 24.3624 43.0315 24.45 42.8235 24.4517C42.6155 24.4533 42.4161 24.3688 42.2725 24.2182L40.0359 21.8712C39.7492 21.5704 39.7607 21.0934 40.0615 20.8067C40.3624 20.52 40.8394 20.5315 41.1261 20.8323L42.0732 21.8262ZM33.9331 11.8701C33.9331 12.1454 33.7779 12.3803 33.5439 12.6005C33.199 12.9252 32.6955 13.2002 32.0823 13.4437C30.0027 14.2695 26.7516 14.6695 23.5023 14.6693C20.2529 14.6692 17.0017 14.269 14.9221 13.4432C14.3089 13.1997 13.8054 12.9247 13.4605 12.6001C13.2265 12.38 13.0712 12.1453 13.0712 11.8701C13.0712 11.6537 13.2124 11.4627 13.4129 11.2681C13.7303 10.9598 14.198 10.681 14.78 10.4242C16.7463 9.55692 19.9223 9.00737 23.5022 9.00737C27.083 9.00737 30.2588 9.55683 32.2248 10.4242C32.8067 10.6809 33.2743 10.9598 33.5916 11.268C33.7921 11.4627 33.9331 11.6537 33.9331 11.8701ZM33.9331 18.41C33.9331 18.6853 33.7779 18.9202 33.5439 19.1405C33.199 19.4652 32.6955 19.7402 32.0823 19.9837C30.0027 20.8094 26.7516 21.2093 23.5023 21.2093C20.2529 21.2092 17.0017 20.809 14.9221 19.9832C14.3089 19.7397 13.8054 19.4647 13.4605 19.1401C13.2265 18.9199 13.0712 18.6852 13.0712 18.41V14.1946C13.1442 14.2418 13.2197 14.288 13.2978 14.3335C15.3724 15.5394 19.4342 16.1765 23.5022 16.1767C27.5701 16.1769 31.6321 15.54 33.7067 14.3339C33.7847 14.2885 33.8602 14.2422 33.9331 14.195V18.41ZM24.2035 29.2496C24.1966 29.4713 24.2387 29.6961 24.3327 29.9076L24.8323 31.0315C24.542 31.5912 24.3002 32.1743 24.1089 32.7759L22.9613 33.2175C22.4955 33.3968 22.1566 33.7912 22.0403 34.2613C19.3016 34.1586 16.689 33.7644 14.922 33.0629C14.3089 32.8194 13.8053 32.5444 13.4604 32.2198C13.2265 31.9997 13.0712 31.765 13.0712 31.4898V27.2744C13.1442 27.3215 13.2197 27.3678 13.2978 27.4132C15.3724 28.6191 19.4343 29.2559 23.5022 29.2559C23.7361 29.2559 23.9699 29.2539 24.2035 29.2496ZM33.9331 23.4441H33.1752C32.5527 23.4441 31.9944 23.827 31.7703 24.4078L31.3265 25.5581C30.7261 25.7485 30.1434 25.9899 29.5838 26.2801L28.4598 25.7804C27.8904 25.5272 27.2239 25.6509 26.7832 26.0915L25.1613 27.7134C24.6121 27.737 24.0571 27.7485 23.5022 27.7485C20.2529 27.7485 17.0017 27.3485 14.922 26.5229C14.3089 26.2795 13.8053 26.0045 13.4604 25.6799C13.2265 25.4598 13.0712 25.2251 13.0712 24.95V20.7345C13.1442 20.7817 13.2197 20.828 13.2978 20.8733C15.3724 22.0794 19.4342 22.7165 23.5022 22.7166C27.5701 22.7167 31.6321 22.0799 33.7067 20.8738C33.7847 20.8284 33.8602 20.7821 33.9331 20.7349V23.4441ZM36.9146 26.8059C37.902 27.0406 38.8437 27.4306 39.7092 27.964L41.5256 27.1564L43.665 29.2957L42.8605 31.1121C43.3938 31.9776 43.7839 32.9194 44.0185 33.9098L45.8715 34.623V37.6492L44.0185 38.3624C43.7839 39.3498 43.3907 40.2914 42.8605 41.1569L43.665 42.9733L41.5256 45.1127L39.7092 44.3082C38.8467 44.8415 37.902 45.2316 36.9146 45.4663L36.2015 47.3192H33.1752L32.4621 45.4663C31.4716 45.2316 30.5299 44.8384 29.6644 44.3082L27.8481 45.1127L25.7087 42.9733L26.5163 41.1569C25.9829 40.2945 25.5928 39.3498 25.3552 38.3624L23.5022 37.6492V34.623L25.3552 33.9098C25.5928 32.9194 25.9829 31.9776 26.5163 31.1121L25.7087 29.2957L27.8481 27.1564L29.6644 27.964C30.5299 27.4306 31.4716 27.0406 32.4591 26.8059L33.1752 24.95H36.2015L36.9146 26.8059ZM34.6868 30.8561C31.7703 30.8561 29.4084 33.218 29.4084 36.1345C29.4084 39.0511 31.7703 41.416 34.6868 41.416C37.6034 41.416 39.9683 39.0511 39.9683 36.1345C39.9683 33.218 37.6034 30.8561 34.6868 30.8561Z" fill="white"/>
</svg>
