<svg width="40" height="40" viewBox="0 0 40 40" fill="none" xmlns="http://www.w3.org/2000/svg">
<g clip-path="url(#clip0_102_367)">
<path d="M30.009 30.3414V33.0596C30.009 33.355 29.7727 33.6505 29.4181 33.6505H24.5136C24.3954 32.8232 24.9272 30.2823 23.45 27.3868H25.9909L26.6409 29.7505H29.4772C29.7727 29.7505 30.009 29.9868 30.009 30.3414Z" fill="white"/>
<path d="M37.3363 1.38684H8.38175C7.31812 1.38684 6.49084 2.2732 6.49084 3.27775V4.81411C6.84539 4.51866 7.25903 4.2823 7.67266 4.04593V3.27775C7.67266 2.86411 8.02721 2.56866 8.38175 2.56866H37.3363C37.7499 2.56866 38.0454 2.86411 38.0454 3.27775V19.8823H19.609C18.6636 20.1187 17.7181 20.2959 16.8318 20.2959L16.5363 20.5914C16.0045 21.1823 15.4136 21.655 14.8227 22.0096C18.0727 22.0687 20.9681 23.6641 22.7408 26.205H37.3363C38.3999 26.205 39.2272 25.3187 39.2272 24.3141V3.27775C39.2272 2.21411 38.3408 1.38684 37.3363 1.38684ZM22.859 24.1368C22.2681 24.1368 21.7954 23.6641 21.7954 23.0732C21.7954 22.4823 22.2681 22.0096 22.859 22.0096C23.4499 22.0096 23.9227 22.4823 23.9227 23.0732C23.9227 23.6641 23.4499 24.1368 22.859 24.1368Z" fill="white"/>
<path d="M17.3635 17.1641C17.4226 16.9868 17.4817 16.8686 17.5408 16.6913C19.1363 16.455 19.4317 13.0277 18.0726 12.0822C17.5408 8.95042 15.1181 6.64587 12.3408 6.64587C9.50446 6.64587 7.14082 8.95042 6.609 12.0822C5.24991 13.0277 5.54537 16.3959 7.14082 16.6913C8.08628 19.1731 10.0363 21.5959 12.3408 21.5959C13.6408 21.5959 14.7045 20.8868 15.6499 19.8822C14.7635 19.7641 13.9363 19.5277 13.2863 19.1141C12.9908 19.2322 12.6954 19.2913 12.3999 19.2913C11.0408 19.2913 9.859 18.1686 9.859 16.7504C9.859 15.3322 10.9817 14.2095 12.3999 14.2095C13.8181 14.2095 14.9408 15.3322 14.9408 16.7504V16.9277C15.6499 17.2231 16.5954 17.2822 17.3635 17.1641Z" fill="white"/>
<path d="M14.7045 23.1914H10.0954C5.30906 23.1914 1.40906 27.0914 1.40906 31.8778V36.0141C1.40906 36.2505 1.58633 36.4869 1.7636 36.546C8.55906 39.3823 15.7091 39.6187 22.9772 36.546C23.2136 36.4278 23.3318 36.2505 23.3318 36.0141V31.8778C23.3318 27.0914 19.4909 23.1914 14.7045 23.1914Z" fill="white"/>
<path d="M3.71364 18.1095H3.77273C4.71818 18.1095 5.48636 17.3414 5.48636 16.3959V14.5641C5.48636 13.7959 5.01364 13.205 4.36364 12.9686C4.83636 8.59591 8.20455 5.22773 12.3409 5.22773C16.4773 5.22773 19.9045 8.53682 20.3182 12.9095C19.6682 13.1459 19.1955 13.7959 19.1955 14.505V16.3368C19.1955 16.5141 19.1955 16.6323 19.2545 16.7505C19.3136 16.9868 19.4318 17.2232 19.55 17.4005C18.1318 17.8732 15.7682 18.405 14.0545 17.2823C14.1136 17.105 14.1727 16.9277 14.1727 16.7505C14.1727 15.805 13.4045 14.9777 12.4 14.9777C11.4545 14.9777 10.6273 15.805 10.6273 16.7505C10.6273 17.755 11.4545 18.5232 12.4 18.5232C12.7545 18.5232 13.05 18.405 13.3455 18.2277C15.4727 19.705 18.7818 19.1732 21.0864 18.0505C22.0318 17.9914 22.7409 17.2823 22.7409 16.3368V14.505C22.7409 13.7368 22.2091 13.0868 21.5 12.8505C21.0273 7.82772 17.0682 3.98682 12.3409 3.98682C7.61364 3.98682 3.65455 7.82772 3.18182 12.8505C2.53182 13.0868 2 13.7368 2 14.5641V16.3959C2 17.3414 2.76818 18.1095 3.71364 18.1095Z" fill="white"/>
<path d="M35.209 15.3914C35.209 15.6869 34.9727 15.9824 34.6181 15.9824H28.2363C27.9408 15.9824 27.6454 15.6869 27.6454 15.3914C27.6454 15.096 27.9408 14.8005 28.2363 14.8005H34.6181C34.9727 14.8005 35.209 15.0369 35.209 15.3914Z" fill="white"/>
<path d="M34.6181 7.41412H25.1045C24.7499 7.41412 24.5135 7.17775 24.5135 6.82321C24.5135 6.46866 24.7499 6.2323 25.1045 6.2323H34.6772C35.0317 6.2323 35.2681 6.46866 35.2681 6.82321C35.209 7.11866 34.9726 7.41412 34.6181 7.41412Z" fill="white"/>
<path d="M35.2091 11.0777C35.2091 11.4323 34.9727 11.6686 34.6181 11.6686H27.2318C26.8772 11.6686 26.6409 11.4323 26.6409 11.0777C26.6409 10.7232 26.8772 10.4868 27.2318 10.4868H34.6181C34.9727 10.4868 35.2091 10.7823 35.2091 11.0777Z" fill="white"/>
</g>
<defs>
<clipPath id="clip0_102_367">
<rect width="39" height="39" fill="white" transform="translate(0.818115 0.55957)"/>
</clipPath>
</defs>
</svg>
