<svg width="59" height="59" viewBox="0 0 59 59" fill="none" xmlns="http://www.w3.org/2000/svg">
<path d="M26.4641 11.7629H53.8215V9.95044H26.4641V11.7629ZM47.4551 34.5891C46.1411 33.2751 44.0114 33.2751 42.6973 34.5891C41.3833 35.9032 41.3833 38.0329 42.6973 39.3469C44.0114 40.661 46.1411 40.661 47.4551 39.3469C48.7692 38.0329 48.7692 35.9032 47.4551 34.5891ZM47.3532 41.8618H42.7879C39.9333 41.8618 37.5997 44.1954 37.5997 47.05V48.9758H52.5301V47.05C52.5415 44.1954 50.2079 41.8618 47.3532 41.8618ZM36.818 21.12H34.4618C33.8954 21.12 33.4422 21.5844 33.4422 22.1395V24.7336C33.4422 25.3 33.9067 25.7532 34.4618 25.7532H36.818V21.12ZM38.1774 20.8141V26.059L42.686 28.8684V18.0047L38.1774 20.8141ZM44.4985 22.3321C44.3625 22.1961 44.2153 22.0715 44.0454 21.9809V25.1301C45.0762 24.5864 45.3028 23.1817 44.4985 22.3321ZM46.5149 27.0672C46.243 26.818 46.2204 26.3875 46.4809 26.1157C46.7301 25.8438 47.1606 25.8211 47.4438 26.0704L48.2254 26.7954C48.4973 27.0446 48.52 27.475 48.2708 27.7469C48.0215 28.0188 47.5911 28.0415 47.3079 27.7922L46.5149 27.0672ZM47.4325 21.0407C47.1606 21.2899 46.7301 21.2786 46.4696 21.0067C46.2204 20.7348 46.2317 20.3043 46.5036 20.0438L47.2852 19.3188C47.5571 19.0696 47.9875 19.0809 48.2481 19.3641C48.4973 19.636 48.486 20.0665 48.2028 20.3157L47.4325 21.0407ZM47.8743 24.2352C47.5004 24.2352 47.1946 23.9293 47.1946 23.5555C47.1946 23.1817 47.5004 22.8758 47.8743 22.8758H49.1543C49.5282 22.8758 49.834 23.1817 49.834 23.5555C49.834 23.9293 49.5282 24.2352 49.1543 24.2352H47.8743ZM36.4215 27.1125V29.7293C36.4215 30.1032 36.1157 30.409 35.7418 30.409C35.368 30.409 35.0622 30.1032 35.0622 29.7293V27.1125H34.4618C33.1477 27.1125 32.0715 26.0364 32.0715 24.7336V22.1395C32.0715 20.8254 33.1477 19.7606 34.4618 19.7606H37.3051L43.0032 16.2149C43.4563 15.9317 44.0454 16.2715 44.0454 16.7926V20.5422C46.2883 21.1426 47.1153 23.986 45.4954 25.7192C45.1102 26.1383 44.6118 26.4329 44.0454 26.5915V30.1032C44.0454 30.6243 43.4676 30.9868 42.9692 30.6583L37.3051 27.1352H36.4215V27.1125ZM16.1102 10.0864C14.2524 10.0864 12.7458 11.593 12.7458 13.4508C12.7458 15.3086 14.2524 16.8153 16.1102 16.8153C17.968 16.8153 19.4747 15.3086 19.4747 13.4508C19.4747 11.593 17.968 10.0864 16.1102 10.0864ZM8.88286 21.9583C9.16606 21.9469 9.44927 21.9356 9.7438 21.9356C11.9981 21.9129 14.2864 22.2415 16.1102 22.9438C17.934 22.2528 20.211 21.9129 22.4766 21.9356C22.7711 21.9356 23.0543 21.9469 23.3375 21.9583C22.6579 19.8399 20.6754 18.3446 18.3985 18.3446H13.8333C11.5563 18.3559 9.56255 19.8399 8.88286 21.9583ZM4.20435 36.8208C7.53481 35.6879 12.0661 35.6653 15.4305 36.7188V24.1333C12.236 23.0004 7.44419 22.9778 4.20435 24.2465V36.8208ZM6.65122 30.477C6.30005 30.5903 5.91489 30.409 5.79028 30.0465C5.66567 29.6954 5.85825 29.3102 6.20942 29.1856C8.07856 28.5512 10.0497 28.3926 11.9754 28.7891C12.3379 28.8684 12.5758 29.2196 12.5079 29.5821C12.4286 29.9446 12.0774 30.1825 11.7036 30.1145C10.0383 29.786 8.2938 29.9219 6.65122 30.477ZM6.65122 33.6149C6.30005 33.7282 5.91489 33.5469 5.79028 33.1844C5.66567 32.8333 5.85825 32.4481 6.20942 32.3235C8.07856 31.6891 10.0497 31.5305 11.9754 31.9157C12.3379 31.995 12.5758 32.3461 12.5079 32.7086C12.4286 33.0711 12.0774 33.309 11.7036 33.2411C10.0383 32.9125 8.2938 33.0485 6.65122 33.6149ZM25.9997 29.1969C26.3508 29.3215 26.5434 29.7067 26.4188 30.0579C26.2942 30.409 25.909 30.6016 25.5579 30.4883C23.9153 29.9333 22.1708 29.786 20.4829 30.1258C20.1204 30.2051 19.7579 29.9672 19.6899 29.5934C19.6106 29.2309 19.8485 28.8684 20.2223 28.8004C22.1594 28.404 24.1305 28.5625 25.9997 29.1969ZM25.9997 26.0704C26.3508 26.195 26.5434 26.5801 26.4188 26.9313C26.2942 27.2825 25.909 27.475 25.5579 27.3504C23.9153 26.7954 22.1708 26.6481 20.4829 26.9879C20.1204 27.0672 19.7579 26.8293 19.6899 26.4555C19.6106 26.093 19.8485 25.7305 20.2223 25.6625C22.1594 25.2774 24.1305 25.4247 25.9997 26.0704ZM6.65122 27.3504C6.30005 27.475 5.91489 27.2825 5.79028 26.9313C5.66567 26.5801 5.85825 26.195 6.20942 26.0704C8.07856 25.436 10.0497 25.2774 11.9754 25.6739C12.3379 25.7532 12.5758 26.1043 12.5079 26.4668C12.4286 26.8293 12.0774 27.0672 11.7036 26.9993C10.0383 26.6594 8.2938 26.7954 6.65122 27.3504ZM25.4446 33.6262L25.4899 33.5809C23.87 33.0372 22.1481 32.9125 20.4942 33.2524C20.1317 33.3204 19.7692 33.0825 19.7012 32.72C19.6219 32.3575 19.8598 31.995 20.2336 31.927C22.1594 31.5418 24.1305 31.7004 25.9997 32.3348C26.2489 32.4141 26.4075 32.6293 26.4528 32.8672C26.9286 32.5954 27.461 32.4028 28.0161 32.3122V24.2579C27.6989 24.1333 27.359 24.02 27.0192 23.918C26.9852 23.9067 26.9399 23.9067 26.9059 23.884C26.0563 23.6461 25.1387 23.4875 24.1872 23.3856C24.1532 23.3856 24.1192 23.3856 24.0852 23.3743C23.5528 23.3176 23.009 23.295 22.4653 23.295C20.4489 23.2723 18.4325 23.5555 16.7899 24.1446V36.7188C19.0442 36.0165 21.7176 35.8125 24.1532 36.0391C24.3344 35.0989 24.7989 34.2719 25.4446 33.6262ZM28.7864 33.6036C26.9286 33.6036 25.4219 35.1102 25.4219 36.968C25.4219 38.8258 26.9286 40.3325 28.7864 40.3325C30.6442 40.3325 32.1508 38.8258 32.1508 36.968C32.1508 35.1102 30.6442 33.6036 28.7864 33.6036ZM31.8563 40.559C34.0653 40.8309 35.9684 42.2129 36.9313 44.1614C37.9055 42.2129 39.7973 40.8309 42.0063 40.559C39.9106 38.7692 39.786 35.5747 41.7344 33.6262C43.5809 31.7797 46.5715 31.7797 48.418 33.6262C50.3665 35.5747 50.2418 38.7692 48.1461 40.559C49.8793 40.7629 51.4086 41.6579 52.4622 42.9719V13.1336H27.8122V22.7399C28.22 22.8758 28.5938 23.0118 28.9676 23.1817C29.2168 23.295 29.3641 23.5442 29.3641 23.8047V32.2782C31.709 32.5727 33.4989 34.5665 33.4989 36.968C33.5102 38.3954 32.8758 39.6868 31.8563 40.559ZM31.0633 41.8618H26.4981C23.6434 41.8618 21.3098 44.1954 21.3098 47.05V48.9758H36.2403V47.05C36.2516 44.1954 33.918 41.8618 31.0633 41.8618Z" fill="white"/>
</svg>
