<svg width="76" height="76" viewBox="0 0 76 76" fill="none" xmlns="http://www.w3.org/2000/svg">
<path d="M65.7222 36.0679C65.7247 35.3793 65.5614 34.7003 65.2459 34.0882C64.9304 33.4761 64.4721 32.9491 63.9098 32.5517C64.4896 32.1388 64.9583 31.5888 65.2742 30.9509C65.59 30.3129 65.7431 29.6068 65.7199 28.8953C65.6966 28.1838 65.4977 27.4891 65.141 26.8731C64.7842 26.2572 64.2806 25.739 63.675 25.3648C63.2246 25.0862 62.7268 24.8925 62.2065 24.7934V6.37061C62.2055 5.43853 61.8347 4.54493 61.1757 3.88585C60.5166 3.22677 59.623 2.85603 58.6909 2.85498H21.1909C20.2588 2.85603 19.3652 3.22677 18.7061 3.88585C18.0471 4.54493 17.6763 5.43853 17.6753 6.37061V7.80823C15.3457 8.33871 13.2654 9.6446 11.7751 11.512C10.2847 13.3794 9.47275 15.6975 9.47215 18.0867C9.47156 20.4759 10.2824 22.7944 11.7718 24.6626C13.2612 26.5307 15.3408 27.8376 17.6701 28.3693L11.9027 34.9605C11.1129 35.8605 10.6193 36.9817 10.4887 38.1719L9.59489 46.2168C9.57663 46.3804 9.52414 46.5383 9.44082 46.6803C9.3575 46.8223 9.24523 46.9452 9.11131 47.0409L1.75977 52.292L3.12204 54.1992L10.4736 48.9481C10.8753 48.6608 11.2121 48.2922 11.4621 47.8662C11.712 47.4402 11.8695 46.9664 11.9243 46.4756L12.8182 38.4307C12.8965 37.7166 13.1927 37.0439 13.6665 36.5039L19.8417 29.4466L20.8529 31.1319C21.22 31.7478 21.3909 32.4609 21.3428 33.1764C21.2947 33.8918 21.0298 34.5756 20.5834 35.1368L17.9321 38.451C17.7658 38.6588 17.6753 38.917 17.6753 39.1831V64.5024L16.9548 64.2586C16.4041 64.0713 15.8155 64.024 15.242 64.1209C14.6685 64.2178 14.1281 64.4559 13.6695 64.8137L4.11818 72.2425L5.55713 74.0925L15.1085 66.6637C15.2613 66.5443 15.4414 66.465 15.6326 66.4327C15.8238 66.4004 16.02 66.4162 16.2035 66.4787L17.6753 66.9769V69.6519C17.6763 70.5839 18.0471 71.4775 18.7061 72.1366C19.3652 72.7957 20.2588 73.1664 21.1909 73.1675H58.6909C59.623 73.1664 60.5166 72.7957 61.1757 72.1366C61.8347 71.4775 62.2055 70.5839 62.2065 69.6519V54.5558L63.3362 53.9911C64.0023 53.6579 64.5709 53.1581 64.9868 52.5402C65.4026 51.9223 65.6514 51.2074 65.7092 50.4648C65.7669 49.7223 65.6315 48.9774 65.3162 48.3027C65.0009 47.628 64.5164 47.0463 63.9098 46.6142C64.4702 46.2151 64.9271 45.6878 65.2424 45.0762C65.5577 44.4647 65.7222 43.7866 65.7222 43.0986C65.7222 42.4105 65.5577 41.7325 65.2424 41.1209C64.9271 40.5094 64.4702 39.982 63.9098 39.5829C64.4718 39.1855 64.9299 38.6586 65.2454 38.0468C65.5608 37.435 65.7244 36.7562 65.7222 36.0679ZM62.4428 41.4211C62.7314 41.5952 62.9695 41.8415 63.1336 42.1358C63.2977 42.4301 63.3821 42.7622 63.3784 43.0991C63.3796 43.4657 63.2781 43.8253 63.0854 44.1372C62.8927 44.4491 62.6164 44.7007 62.288 44.8635L59.2019 46.4065C58.9011 46.5568 58.5669 46.6278 58.231 46.6127C57.8951 46.5976 57.5687 46.4968 57.2827 46.3201C56.9967 46.1433 56.7606 45.8963 56.5968 45.6026C56.4331 45.309 56.3472 44.9783 56.3472 44.6421C56.3459 44.2755 56.4474 43.9159 56.6402 43.604C56.8329 43.2921 57.1092 43.0405 57.4376 42.8777L60.5237 41.3347C60.8235 41.1808 61.1582 41.1078 61.4948 41.123C61.8314 41.1381 62.1582 41.2409 62.4428 41.4211ZM55.1753 47.6016C55.3701 47.8077 55.5846 47.9941 55.8158 48.1583C55.5846 48.3215 55.3701 48.5071 55.1753 48.7125V47.6016ZM62.288 37.8323L59.2019 39.3752C58.9011 39.5256 58.5669 39.5966 58.231 39.5814C57.8951 39.5663 57.5687 39.4656 57.2827 39.2888C56.9967 39.112 56.7606 38.8651 56.5968 38.5714C56.4331 38.2777 56.3472 37.9471 56.3472 37.6108C56.3459 37.2442 56.4474 36.8846 56.6402 36.5727C56.8329 36.2609 57.1092 36.0093 57.4376 35.8464L60.5237 34.3034C60.8245 34.1531 61.1587 34.0821 61.4946 34.0973C61.8304 34.1124 62.1569 34.2131 62.4429 34.3899C62.7289 34.5667 62.965 34.8137 63.1287 35.1073C63.2924 35.401 63.3784 35.7317 63.3784 36.0679C63.3796 36.4345 63.2781 36.7941 63.0854 37.106C62.8927 37.4178 62.6164 37.6694 62.288 37.8323ZM63.3784 29.0366C63.3796 29.4032 63.2781 29.7628 63.0854 30.0747C62.8927 30.3866 62.6164 30.6382 62.288 30.801L59.2019 32.344C58.9011 32.4944 58.5669 32.5653 58.231 32.5502C57.8951 32.5351 57.5687 32.4343 57.2827 32.2576C56.9967 32.0808 56.7606 31.8338 56.5968 31.5401C56.4331 31.2465 56.3472 30.9158 56.3472 30.5796C56.3459 30.213 56.4474 29.8534 56.6402 29.5415C56.8329 29.2296 57.1092 28.978 57.4376 28.8152L60.5236 27.2722C60.8244 27.1219 61.1585 27.0509 61.4944 27.066C61.8304 27.0811 62.1568 27.1819 62.4428 27.3586C62.7289 27.5354 62.965 27.7824 63.1287 28.076C63.2924 28.3697 63.3784 28.7004 63.3784 29.0366ZM50.1587 5.19873L49.7947 6.65485C49.7316 6.90852 49.5853 7.13375 49.3793 7.29462C49.1732 7.4555 48.9193 7.54275 48.6579 7.54248H31.2239C30.9625 7.54275 30.7086 7.4555 30.5025 7.29462C30.2965 7.13375 30.1502 6.90852 30.0871 6.65485L29.7231 5.19873H50.1587ZM11.8159 18.0894C11.8159 16.7621 12.138 15.4547 12.7545 14.2793C13.371 13.1039 14.2635 12.0957 15.3553 11.3411C16.4472 10.5866 17.7059 10.1082 19.0233 9.94708C20.3407 9.78597 21.6776 9.94694 22.9191 10.4162C24.1606 10.8854 25.2698 11.6489 26.1513 12.641C27.0329 13.6332 27.6605 14.8245 27.9804 16.1126C28.3002 17.4008 28.3028 18.7473 27.9877 20.0366C27.6727 21.3259 27.0496 22.5195 26.1717 23.515C26.0587 23.6431 25.975 23.7943 25.9266 23.9581C25.8781 24.1219 25.8661 24.2943 25.8913 24.4633L26.6698 29.6858L21.8479 26.4214C21.6126 26.2622 21.3276 26.1938 21.0457 26.229C20.7051 26.2713 20.3622 26.2925 20.019 26.2925C17.8442 26.29 15.7591 25.425 14.2213 23.8871C12.6834 22.3493 11.8184 20.2642 11.8159 18.0894ZM58.6909 70.8237H21.1909C20.8802 70.8234 20.5823 70.6998 20.3627 70.4801C20.143 70.2604 20.0194 69.9626 20.019 69.6519V39.5942L22.4136 36.6009C23.1549 35.6687 23.5959 34.5336 23.6781 33.3454C23.7604 32.1573 23.4802 30.9722 22.8745 29.9467L27.5652 33.1223C27.7536 33.2499 27.9751 33.3198 28.2027 33.3236C28.4302 33.3274 28.6539 33.2648 28.8465 33.1436C29.0391 33.0224 29.1922 32.8477 29.2871 32.6409C29.3821 32.4341 29.4148 32.2041 29.3812 31.9791L28.287 24.638C29.5177 23.084 30.2855 21.2146 30.5025 19.2442C30.7195 17.2738 30.3768 15.2821 29.5137 13.4976C28.6507 11.713 27.3022 10.2078 25.6228 9.15453C23.9435 8.10125 22.0013 7.54255 20.019 7.54248V6.37061C20.0194 6.05991 20.143 5.76205 20.3627 5.54236C20.5823 5.32267 20.8802 5.19909 21.1909 5.19873H27.3072L27.8133 7.22333C28.0027 7.98437 28.4414 8.66009 29.0596 9.14272C29.6777 9.62535 30.4397 9.8871 31.2239 9.88623H48.6579C49.4421 9.8871 50.2041 9.62535 50.8222 9.14272C51.4404 8.66009 51.8791 7.98437 52.0685 7.22333L52.5746 5.19873H58.6909C59.0016 5.19909 59.2995 5.32267 59.5192 5.54236C59.7388 5.76205 59.8624 6.05991 59.8628 6.37061V25.0074C59.7322 25.0577 59.6026 25.1125 59.4755 25.176L56.3894 26.7189C55.7233 27.052 55.1546 27.5518 54.7388 28.1697C54.323 28.7876 54.0741 29.5026 54.0164 30.2451C53.9587 30.9877 54.094 31.7325 54.4093 32.4073C54.7246 33.082 55.2092 33.6637 55.8158 34.0958C55.2553 34.4949 54.7984 35.0222 54.4832 35.6338C54.1679 36.2453 54.0034 36.9234 54.0034 37.6114C54.0034 38.2994 54.1679 38.9775 54.4832 39.5891C54.7984 40.2006 55.2553 40.7279 55.8158 41.127C55.2953 41.4955 54.8637 41.9755 54.5523 42.532C53.8444 40.818 52.5768 39.3944 50.956 38.4933L44.6356 34.982C44.6832 34.0193 44.9676 33.0832 45.4634 32.2567L46.307 30.8507C47.509 28.8472 48.1439 26.5547 48.144 24.2184V17.592C48.9139 16.3302 49.3195 14.88 49.3159 13.4019C49.3159 13.0911 49.1924 12.793 48.9727 12.5732C48.7529 12.3535 48.4548 12.23 48.144 12.23H39.7394C37.618 12.2324 35.5841 13.0761 34.0841 14.5762C32.584 16.0763 31.7402 18.1101 31.7378 20.2315V24.2184C31.7379 26.5547 32.3729 28.8472 33.5748 30.8507L34.4184 32.2567C34.9143 33.0832 35.1986 34.0193 35.2463 34.982L28.9258 38.4933C27.6473 39.2041 26.582 40.2437 25.8402 41.5044C25.0984 42.7652 24.707 44.2012 24.7065 45.664V59.105H27.0503V45.664C27.0506 44.6192 27.3302 43.5934 27.8601 42.6929C28.3899 41.7924 29.1509 41.0498 30.0641 40.5421L32.9097 38.9612V48.0727L31.1101 49.8722C30.5644 50.415 30.1317 51.0607 29.8371 51.7719C29.5425 52.4831 29.3919 53.2456 29.394 54.0154V57.9331C29.394 58.2439 29.5175 58.542 29.7373 58.7617C29.957 58.9815 30.2551 59.105 30.5659 59.105H32.9097V56.7612H31.7378V54.0154C31.7365 53.5535 31.8269 53.096 32.0036 52.6693C32.1804 52.2426 32.44 51.8551 32.7675 51.5294L34.0815 50.2154L35.3955 51.5293C35.723 51.855 35.9826 52.2425 36.1594 52.6692C36.3361 53.0959 36.4265 53.5535 36.4253 54.0154V56.7612H35.2534V59.105H37.5972C37.908 59.105 38.206 58.9815 38.4258 58.7617C38.6456 58.542 38.769 58.2439 38.769 57.9331V54.0154C38.7711 53.2456 38.6205 52.483 38.3259 51.7718C38.0313 51.0606 37.5986 50.4149 37.0528 49.872L35.2534 48.0727V37.6591L35.7601 37.3776L38.8292 46.585C38.907 46.8183 39.0562 47.0213 39.2557 47.1651C39.4552 47.3089 39.695 47.3862 39.9409 47.3862C40.1868 47.3862 40.4266 47.3089 40.6261 47.1651C40.8256 47.0213 40.9748 46.8183 41.0526 46.585L44.1218 37.3776L44.6284 37.6591V52.2753C43.8465 52.5517 43.1875 53.0957 42.7679 53.811C42.3483 54.5263 42.195 55.367 42.3353 56.1844C42.4755 57.0017 42.9002 57.7432 43.5343 58.2778C44.1683 58.8123 44.971 59.1055 45.8003 59.1055C46.6296 59.1055 47.4322 58.8123 48.0663 58.2778C48.7004 57.7432 49.125 57.0017 49.2653 56.1844C49.4055 55.367 49.2523 54.5263 48.8327 53.811C48.413 53.0957 47.754 52.5517 46.9722 52.2753V38.9612L49.8177 40.5421C50.7309 41.0498 51.4918 41.7924 52.0217 42.6929C52.5516 43.5934 52.8312 44.6192 52.8315 45.664V59.105H55.1753V54.6329C55.4349 54.9072 55.7291 55.1467 56.0505 55.3452C56.6144 55.6971 57.2526 55.9127 57.9143 55.9749C58.5761 56.037 59.2432 55.944 59.8628 55.7032V69.6519C59.8624 69.9626 59.7388 70.2604 59.5192 70.4801C59.2995 70.6998 59.0016 70.8234 58.6909 70.8237ZM46.9722 55.5894C46.9722 55.8211 46.9034 56.0477 46.7747 56.2404C46.6459 56.4331 46.4629 56.5833 46.2487 56.672C46.0346 56.7607 45.799 56.7839 45.5717 56.7387C45.3443 56.6935 45.1355 56.5819 44.9716 56.418C44.8077 56.2541 44.6961 56.0453 44.6509 55.818C44.6057 55.5907 44.6289 55.355 44.7176 55.1409C44.8063 54.9268 44.9565 54.7437 45.1492 54.615C45.3419 54.4862 45.5685 54.4175 45.8003 54.4175C46.111 54.4178 46.4088 54.5414 46.6285 54.7611C46.8482 54.9808 46.9718 55.2787 46.9722 55.5894ZM44.2973 29.6447L43.4537 31.0508C42.6888 32.3257 42.2847 33.7845 42.2847 35.2712V35.4773L39.9409 42.5086L37.5972 35.4773V35.2712C37.5971 33.7845 37.193 32.3257 36.4281 31.0508L35.5845 29.6447C34.6011 28.0055 34.0816 26.1299 34.0815 24.2184V22.6104L42.531 21.3104C43.701 21.1326 44.8174 20.6987 45.8003 20.0395V24.2184C45.8002 26.1299 45.2807 28.0055 44.2973 29.6447ZM42.1746 18.9939L34.0815 20.239V20.2315C34.0832 18.7315 34.6799 17.2934 35.7406 16.2327C36.8013 15.1721 38.2394 14.5754 39.7394 14.5737H46.8525C46.6189 15.7007 46.0451 16.7289 45.2086 17.5193C44.372 18.3098 43.313 18.8245 42.1746 18.9939ZM62.288 51.8948L59.202 53.4377C58.9012 53.5881 58.567 53.6591 58.2311 53.644C57.8952 53.6288 57.5687 53.5281 57.2827 53.3513C56.9967 53.1746 56.7606 52.9276 56.5969 52.6339C56.4331 52.3402 56.3472 52.0096 56.3472 51.6733C56.3459 51.3067 56.4474 50.9471 56.6402 50.6352C56.8329 50.3234 57.1092 50.0718 57.4376 49.9089L60.5237 48.3659C60.8245 48.2156 61.1587 48.1446 61.4946 48.1598C61.8304 48.1749 62.1569 48.2756 62.4429 48.4524C62.7289 48.6292 62.965 48.8762 63.1287 49.1698C63.2924 49.4635 63.3784 49.7942 63.3784 50.1304C63.3796 50.497 63.2781 50.8566 63.0854 51.1685C62.8927 51.4803 62.6164 51.7319 62.288 51.8948Z" fill="#D9D9D9"/>
<path d="M39.9409 61.4487C39.2456 61.4487 38.5659 61.6549 37.9877 62.0412C37.4096 62.4275 36.959 62.9766 36.6929 63.619C36.4268 64.2614 36.3572 64.9683 36.4928 65.6502C36.6285 66.3322 36.9633 66.9586 37.455 67.4503C37.9467 67.9419 38.5731 68.2768 39.2551 68.4124C39.937 68.5481 40.6439 68.4785 41.2863 68.2124C41.9287 67.9463 42.4778 67.4957 42.8641 66.9175C43.2504 66.3394 43.4565 65.6597 43.4565 64.9644C43.4555 64.0323 43.0848 63.1387 42.4257 62.4796C41.7666 61.8205 40.873 61.4498 39.9409 61.4487ZM39.9409 66.1362C39.7091 66.1362 39.4826 66.0675 39.2899 65.9387C39.0971 65.81 38.9469 65.6269 38.8583 65.4128C38.7696 65.1987 38.7463 64.9631 38.7916 64.7357C38.8368 64.5084 38.9484 64.2996 39.1123 64.1357C39.2762 63.9718 39.485 63.8602 39.7123 63.815C39.9396 63.7698 40.1752 63.793 40.3894 63.8817C40.6035 63.9704 40.7865 64.1206 40.9153 64.3133C41.0441 64.506 41.1128 64.7326 41.1128 64.9644C41.1124 65.275 40.9889 65.5729 40.7692 65.7926C40.5495 66.0123 40.2516 66.1359 39.9409 66.1362Z" fill="#D9D9D9"/>
<path d="M16.5034 16.9175H14.1597V19.2612H16.5034V16.9175Z" fill="#D9D9D9"/>
<path d="M21.1909 16.9175H18.8472V19.2612H21.1909V16.9175Z" fill="#D9D9D9"/>
<path d="M25.8784 16.9175H23.5347V19.2612H25.8784V16.9175Z" fill="#D9D9D9"/>
</svg>
