<svg width="93" height="91" viewBox="0 0 93 91" fill="none" xmlns="http://www.w3.org/2000/svg">
<path d="M72.159 12.2026H66.2637C65.5957 8.99737 62.6922 6.57764 59.2215 6.57764C55.7507 6.57764 52.8472 8.99737 52.1792 12.2026H40.3886C38.7706 4.7728 27.9297 4.75602 26.3042 12.2028C26.3042 12.2026 20.4089 12.2026 20.4089 12.2026C16.446 12.2026 13.2214 15.3571 13.2214 19.2339V67.0464C13.2214 70.9232 16.446 74.0776 20.4089 74.0776H39.4558C41.3451 74.0488 41.3334 71.2853 39.4557 71.2651C39.4558 71.2651 20.4089 71.2651 20.4089 71.2651C18.0309 71.2651 16.0964 69.3727 16.0964 67.0464V19.2339C16.0964 16.9075 18.0309 15.0151 20.4089 15.0151H37.394C36.7987 16.6485 35.218 17.8276 33.3464 17.8276C32.5519 17.8276 31.9089 18.4573 31.9089 19.2339C31.9089 20.0105 32.5519 20.6401 33.3464 20.6401C36.8172 20.6401 39.7207 18.2204 40.3886 15.0151H63.2691C62.6738 16.6485 61.093 17.8276 59.2215 17.8276C57.3227 17.8653 57.3385 20.6078 59.2215 20.6401C62.6922 20.6401 65.5957 18.2204 66.2637 15.0151H72.159C74.537 15.0151 76.4715 16.9075 76.4715 19.2339V23.4526H21.8464C19.9718 23.4816 19.9441 26.2313 21.8465 26.2651C21.8464 26.2651 76.4715 26.2651 76.4715 26.2651V56.4576C76.4715 57.2342 77.1144 57.8639 77.909 57.8639C78.7035 57.8639 79.3465 57.2342 79.3465 56.4576V19.2339C79.3465 15.3571 76.1219 12.2026 72.159 12.2026ZM59.2215 9.39014C61.093 9.39014 62.6738 10.5693 63.2691 12.2026H55.1738C55.7691 10.5693 57.3499 9.39014 59.2215 9.39014ZM33.3465 9.39014C35.218 9.39014 36.7988 10.5693 37.3941 12.2026H29.2988C29.8941 10.5693 31.4749 9.39014 33.3465 9.39014Z" fill="#D9D9D9"/>
<path d="M78.9254 69.006L75.1675 65.3293L74.7476 63.2815C74.3588 61.3692 73.407 59.6292 71.9962 58.2504L66.7277 53.0958C63.9257 50.3533 59.3647 50.356 56.5627 53.0958L52.4973 57.0734L46.3991 51.1072C42.2626 47.3656 36.3761 52.9999 40.2997 57.0736C40.2996 57.0735 46.3989 63.0399 46.3989 63.0399C43.6112 65.6567 43.6096 70.3661 46.3992 72.9831C49.616 75.8405 52.4914 80.1261 56.8083 80.8294C56.8084 80.8294 58.9047 81.239 58.9047 81.239L62.6622 84.9156C63.1966 85.4593 64.1606 85.4612 64.6949 84.9156C64.6949 84.9156 78.9254 70.9946 78.9254 70.9946C79.4869 70.4452 79.4869 69.5553 78.9254 69.006ZM63.6786 81.9328L60.6295 78.9493C60.4102 78.7814 60.1594 78.6507 59.8953 78.5649C59.8953 78.5648 57.3727 78.0718 57.3727 78.0718C55.9773 77.7985 54.7069 77.1332 53.7003 76.1485L48.4318 70.9946C46.759 69.4236 46.7584 66.5991 48.4318 65.0284C48.4317 65.0284 51.4809 68.0111 51.4809 68.0111C52.8189 69.3064 54.8354 67.3274 53.5135 66.0225C51 63.564 44.9065 57.6029 42.3323 55.085C41.019 53.7882 43.0202 51.7963 44.3665 53.0959C44.3664 53.0958 51.4809 60.0563 51.4809 60.0563C52.0424 60.6056 52.9521 60.6056 53.5136 60.0563L58.5954 55.0843C60.2758 53.4419 63.0118 53.4391 64.6949 55.0843L69.9634 60.2397C70.9714 61.2243 71.6508 62.4665 71.9288 63.8329L72.2828 65.5609L63.6786 73.9781C62.3524 75.2793 64.3791 77.2636 65.7114 75.9665C65.7113 75.9666 73.8436 68.0111 73.8436 68.0111L75.8763 70.0003L63.6786 81.9328Z" fill="#D9D9D9"/>
<path d="M33.3464 33.2964C33.3464 31.7453 32.0563 30.4839 30.4714 30.4839H24.7214C23.1365 30.4839 21.8464 31.7453 21.8464 33.2964V38.9214C21.8464 40.4725 23.1365 41.7339 24.7214 41.7339H30.4714C32.0563 41.7339 33.3464 40.4725 33.3464 38.9214V33.2964ZM24.7214 38.9214V33.2964H30.4714L30.4728 38.9214H24.7214Z" fill="#D9D9D9"/>
<path d="M49.1589 41.7339C50.7438 41.7339 52.0339 40.4725 52.0339 38.9214V33.2964C52.0339 31.7453 50.7438 30.4839 49.1589 30.4839H43.4089C41.824 30.4839 40.5339 31.7453 40.5339 33.2964V38.9214C40.5339 40.4725 41.824 41.7339 43.4089 41.7339H49.1589ZM43.4089 33.2964H49.1589L49.1603 38.9214H43.4089V33.2964Z" fill="#D9D9D9"/>
<path d="M67.8464 41.7339C69.4313 41.7339 70.7214 40.4725 70.7214 38.9214V33.2964C70.7214 31.7453 69.4313 30.4839 67.8464 30.4839H62.0964C60.5115 30.4839 59.2214 31.7453 59.2214 33.2964V38.9214C59.2214 40.4725 60.5115 41.7339 62.0964 41.7339H67.8464ZM62.0964 33.2964H67.8464L67.8478 38.9214H62.0964V33.2964Z" fill="#D9D9D9"/>
<path d="M27.5964 57.2026C28.391 57.2026 29.0339 56.573 29.0339 55.7964V52.9839H31.9089C32.7035 52.9839 33.3464 52.3542 33.3464 51.5776C33.3464 50.801 32.7035 50.1714 31.9089 50.1714H29.0339V47.3589C29.0339 46.5823 28.391 45.9526 27.5964 45.9526C26.8019 45.9526 26.1589 46.5823 26.1589 47.3589V50.1714H23.2839C22.4894 50.1714 21.8464 50.801 21.8464 51.5776C21.8464 52.3542 22.4894 52.9839 23.2839 52.9839H26.1589V55.7964C26.1589 56.573 26.8019 57.2026 27.5964 57.2026Z" fill="#D9D9D9"/>
</svg>
